<svg width="24" height="24" viewBox="0 0 24 24" fill="none" xmlns="http://www.w3.org/2000/svg">
<g clip-path="url(#clip0_1582_1354)">
<path d="M7.75534 17.656L16.1416 9.26976L16.6578 14.9195C16.6822 15.184 16.8106 15.4279 17.0148 15.5976C17.2191 15.7674 17.4823 15.849 17.7468 15.8246C18.0112 15.8003 18.2551 15.6718 18.4248 15.4676C18.5946 15.2634 18.6762 15.0001 18.6519 14.7357L17.9447 6.95752C17.9348 6.89999 17.9206 6.84326 17.9023 6.78781C17.867 6.75246 17.8458 6.73124 17.8599 6.64639C17.8109 6.53327 17.7413 6.43018 17.6548 6.34234C17.567 6.25582 17.4639 6.1863 17.3508 6.13728C17.3154 6.10192 17.2942 6.08071 17.2094 6.09485C17.1539 6.07656 17.0972 6.06238 17.0397 6.05242L9.26148 5.34532C9.11518 5.33198 8.96773 5.35104 8.82963 5.40115C8.69153 5.45126 8.56616 5.53118 8.46245 5.63523C8.29691 5.80012 8.19433 6.01778 8.17253 6.25041C8.16029 6.38137 8.17401 6.51346 8.2129 6.63912C8.25179 6.76477 8.31508 6.88151 8.39916 6.98267C8.48323 7.08382 8.58644 7.16739 8.70286 7.2286C8.81928 7.28981 8.94664 7.32744 9.07763 7.33936L14.7274 7.85554L6.34113 16.2418C6.15359 16.4294 6.04823 16.6837 6.04823 16.9489C6.04823 17.2142 6.15359 17.4685 6.34113 17.656C6.52866 17.8436 6.78302 17.9489 7.04823 17.9489C7.31345 17.9489 7.5678 17.8436 7.75534 17.656Z" fill="#010202"/>
</g>
<defs>
<clipPath id="clip0_1582_1354">
<rect width="24" height="24" fill="white"/>
</clipPath>
</defs>
</svg>
