<svg width="25" height="24" viewBox="0 0 25 24" fill="none" xmlns="http://www.w3.org/2000/svg">
<g clip-path="url(#clip0_1582_2348)">
<path d="M8.15378 17.656L16.5401 9.26976L17.0563 14.9195C17.0806 15.184 17.2091 15.4279 17.4133 15.5976C17.6175 15.7674 17.8808 15.849 18.1452 15.8246C18.4096 15.8003 18.6535 15.6718 18.8233 15.4676C18.993 15.2634 19.0747 15.0001 19.0503 14.7357L18.3432 6.95752C18.3332 6.89999 18.319 6.84326 18.3008 6.78781C18.2654 6.75246 18.2442 6.73124 18.2583 6.64639C18.2093 6.53327 18.1398 6.43018 18.0533 6.34234C17.9654 6.25582 17.8623 6.1863 17.7492 6.13728C17.7139 6.10192 17.6926 6.08071 17.6078 6.09485C17.5523 6.07656 17.4956 6.06238 17.4381 6.05242L9.65992 5.34532C9.51361 5.33198 9.36617 5.35104 9.22806 5.40115C9.08996 5.45126 8.9646 5.53118 8.86089 5.63523C8.69535 5.80012 8.59277 6.01778 8.57097 6.25041C8.55873 6.38137 8.57245 6.51346 8.61134 6.63912C8.65022 6.76477 8.71352 6.88151 8.79759 6.98267C8.88167 7.08382 8.98487 7.16739 9.1013 7.2286C9.21772 7.28981 9.34508 7.32744 9.47607 7.33936L15.1259 7.85554L6.73957 16.2418C6.55203 16.4294 6.44667 16.6837 6.44667 16.9489C6.44667 17.2142 6.55203 17.4685 6.73957 17.656C6.9271 17.8436 7.18145 17.9489 7.44667 17.9489C7.71189 17.9489 7.96624 17.8436 8.15378 17.656Z" fill="white"/>
</g>
<defs>
<clipPath id="clip0_1582_2348">
<rect width="24" height="24" fill="white" transform="translate(0.398438)"/>
</clipPath>
</defs>
</svg>
