<svg width="32" height="32" viewBox="0 0 32 32" fill="none" xmlns="http://www.w3.org/2000/svg">
<g clip-path="url(#clip0_1577_2234)">
<path d="M15.3333 26.6667C21.5926 26.6667 26.6667 21.5926 26.6667 15.3333C26.6667 9.07411 21.5926 4 15.3333 4C9.07411 4 4 9.07411 4 15.3333C4 21.5926 9.07411 26.6667 15.3333 26.6667Z" fill="white"/>
<path fill-rule="evenodd" clip-rule="evenodd" d="M16.0013 29.3346C23.3653 29.3346 29.3346 23.3653 29.3346 16.0013C29.3346 8.6373 23.3653 2.66797 16.0013 2.66797C8.6373 2.66797 2.66797 8.6373 2.66797 16.0013C2.66797 23.3653 8.6373 29.3346 16.0013 29.3346ZM20.716 11.2866C20.9664 11.0366 21.3057 10.8963 21.6596 10.8966C22.0134 10.8968 22.3526 11.0376 22.6026 11.288C22.8526 11.5383 22.9929 11.8778 22.9928 12.2316C22.9925 12.5854 22.8517 12.9246 22.6013 13.1746L15.064 20.712L15.0586 20.7173C14.935 20.8416 14.7882 20.9401 14.6265 21.0074C14.4646 21.0748 14.2912 21.1093 14.116 21.1093C13.9408 21.1093 13.7673 21.0748 13.6054 21.0074C13.4437 20.9401 13.2968 20.8416 13.1733 20.7173L13.168 20.712L9.4013 16.9453C9.27396 16.8224 9.17238 16.6752 9.1025 16.5125C9.03262 16.3498 8.99584 16.1749 8.9943 15.9978C8.99277 15.8208 9.0265 15.6452 9.09354 15.4813C9.16058 15.3176 9.25958 15.1686 9.38477 15.0434C9.50997 14.9182 9.65883 14.8193 9.8227 14.7522C9.98655 14.6852 10.1621 14.6514 10.3392 14.6529C10.5162 14.6545 10.6912 14.6913 10.8538 14.7612C11.0165 14.831 11.1636 14.9326 11.2866 15.06L14.116 17.888L20.716 11.288V11.2866Z" fill="#37AB93"/>
<path d="M26.6654 29.3346C29.6109 29.3346 31.9987 26.9468 31.9987 24.0013C31.9987 21.0558 29.6109 18.668 26.6654 18.668C23.7198 18.668 21.332 21.0558 21.332 24.0013C21.332 26.9468 23.7198 29.3346 26.6654 29.3346Z" fill="#37AB93"/>
</g>
<defs>
<clipPath id="clip0_1577_2234">
<rect width="32" height="32" fill="white"/>
</clipPath>
</defs>
</svg>
