<svg width="48" height="48" viewBox="0 0 48 48" fill="none" xmlns="http://www.w3.org/2000/svg">
<path d="M6.00141 24.9997L39.5914 24.9997L35.3014 29.2897C34.9114 29.6797 34.9114 30.3097 35.3014 30.6997C35.6914 31.0897 36.3214 31.0897 36.7114 30.6997L42.7114 24.6997C43.1014 24.3097 43.1014 23.6797 42.7114 23.2897L36.7114 17.2897C36.5114 17.0997 36.2614 16.9997 36.0014 16.9997C35.7414 16.9997 35.4914 17.0997 35.2914 17.2897C34.9014 17.6797 34.9014 18.3097 35.2914 18.6997L39.5914 22.9997L6.00141 22.9997C5.45141 22.9997 5.00141 23.4497 5.00141 23.9997C5.00141 24.5497 5.45141 24.9997 6.00141 24.9997Z" fill="#010202"/>
</svg>
