<svg width="361" height="220" viewBox="0 0 361 220" fill="none" xmlns="http://www.w3.org/2000/svg">
<path d="M14.8724 216.344H21.7891V218.865H11.9766V204.969H14.8724V216.344Z" fill="white"/>
<path d="M38.0586 213.594H41.6003L39.8711 208.094H39.8294L38.0586 213.594ZM36.3086 218.865H33.2461L38.2044 204.969H41.5586L46.4544 218.865H43.3086L42.4128 216.01H37.2878L36.3086 218.865Z" fill="white"/>
<path d="M67.6289 204.969H70.3164V218.865H67.4206L61.7539 208.948H61.7122V218.865H59.0039V204.969H62.0664L67.5872 214.656H67.6289V204.969Z" fill="white"/>
<path d="M90.6419 211.365H96.4336V218.865H94.4961L94.2253 217.135C93.1523 218.542 91.6888 219.24 89.8294 219.24C87.9648 219.24 86.444 218.583 85.2669 217.26C84.0846 215.927 83.4961 214.156 83.4961 211.948C83.4961 209.755 84.1003 207.984 85.3086 206.635C86.5273 205.276 88.1888 204.594 90.2878 204.594C92.0794 204.594 93.5065 205.052 94.5794 205.969C95.6471 206.875 96.2513 207.979 96.3919 209.281H93.4961C93.3138 208.589 92.944 208.042 92.3919 207.635C91.8346 207.219 91.1836 207.01 90.4336 207.01C89.194 207.01 88.2253 207.458 87.5169 208.344C86.8086 209.234 86.4544 210.448 86.4544 211.99C86.4544 213.521 86.793 214.698 87.4753 215.531C88.1523 216.365 89.1628 216.781 90.4961 216.781C91.2461 216.781 91.9336 216.542 92.5586 216.052C93.1836 215.568 93.6211 214.792 93.8711 213.719H90.6419V211.365Z" fill="white"/>
<path d="M121.243 214.01C121.243 215.719 120.764 217.021 119.806 217.906C118.858 218.797 117.436 219.24 115.535 219.24C113.853 219.24 112.514 218.818 111.514 217.969C110.525 217.109 110.035 215.839 110.035 214.156V204.969H112.993V213.99C112.993 214.896 113.212 215.589 113.66 216.073C114.118 216.547 114.764 216.781 115.598 216.781C116.441 216.781 117.103 216.563 117.577 216.115C118.046 215.672 118.285 215.005 118.285 214.115V204.969H121.243V214.01Z" fill="white"/>
<path d="M138.547 213.594H142.089L140.359 208.094H140.318L138.547 213.594ZM136.797 218.865H133.734L138.693 204.969H142.047L146.943 218.865H143.797L142.901 216.01H137.776L136.797 218.865Z" fill="white"/>
<path d="M166.076 211.365H171.867V218.865H169.93L169.659 217.135C168.586 218.542 167.122 219.24 165.263 219.24C163.398 219.24 161.878 218.583 160.701 217.26C159.518 215.927 158.93 214.156 158.93 211.948C158.93 209.755 159.534 207.984 160.742 206.635C161.961 205.276 163.622 204.594 165.721 204.594C167.513 204.594 168.94 205.052 170.013 205.969C171.081 206.875 171.685 207.979 171.826 209.281H168.93C168.747 208.589 168.378 208.042 167.826 207.635C167.268 207.219 166.617 207.01 165.867 207.01C164.628 207.01 163.659 207.458 162.951 208.344C162.242 209.234 161.888 210.448 161.888 211.99C161.888 213.521 162.227 214.698 162.909 215.531C163.586 216.365 164.596 216.781 165.93 216.781C166.68 216.781 167.367 216.542 167.992 216.052C168.617 215.568 169.055 214.792 169.305 213.719H166.076V211.365Z" fill="white"/>
<path d="M195.72 207.427H188.366V210.344H195.137V212.802H188.366V216.406H196.053V218.865H185.512V204.969H195.72V207.427Z" fill="white"/>
<path d="M227.486 214.594C227.486 215.276 227.736 215.818 228.236 216.219C228.746 216.625 229.475 216.823 230.423 216.823C231.366 216.823 232.09 216.672 232.59 216.365C233.09 216.063 233.34 215.615 233.34 215.031C233.34 214.672 233.204 214.365 232.944 214.115C232.694 213.854 232.09 213.609 231.132 213.385L228.777 212.844C227.277 212.484 226.257 212.005 225.715 211.406C225.184 210.797 224.923 209.958 224.923 208.885C224.923 207.625 225.366 206.594 226.257 205.802C227.142 205 228.475 204.594 230.257 204.594C232.033 204.594 233.382 205.047 234.298 205.948C235.215 206.839 235.673 207.885 235.673 209.094H232.882C232.824 208.417 232.559 207.901 232.09 207.552C231.632 207.193 230.949 207.01 230.048 207.01C229.324 207.01 228.741 207.167 228.298 207.469C227.85 207.76 227.632 208.167 227.632 208.677C227.632 209.026 227.725 209.318 227.923 209.552C228.116 209.792 228.428 209.958 228.861 210.052L232.569 210.969C233.913 211.302 234.845 211.776 235.361 212.385C235.871 213 236.132 213.771 236.132 214.698C236.132 216.198 235.6 217.333 234.548 218.094C233.491 218.859 232.194 219.24 230.652 219.24C228.652 219.24 227.158 218.818 226.173 217.969C225.199 217.109 224.715 215.984 224.715 214.594H227.486Z" fill="white"/>
<path d="M258.108 209.51C257.743 207.917 256.717 207.115 255.025 207.115C253.983 207.115 253.15 207.547 252.525 208.406C251.9 209.271 251.587 210.458 251.587 211.969C251.587 213.401 251.884 214.552 252.483 215.427C253.092 216.292 253.941 216.719 255.025 216.719C256.691 216.719 257.717 215.844 258.108 214.094H261.025C260.816 215.526 260.191 216.74 259.15 217.74C258.108 218.74 256.717 219.24 254.983 219.24C253.035 219.24 251.488 218.604 250.337 217.323C249.197 216.031 248.629 214.24 248.629 211.948C248.629 209.74 249.197 207.964 250.337 206.615C251.473 205.271 253.03 204.594 255.004 204.594C256.738 204.594 258.139 205.068 259.212 206.01C260.28 206.943 260.884 208.109 261.025 209.51H258.108Z" fill="white"/>
<path d="M285.315 204.969V218.865H282.419V212.635H276.982V218.865H274.086V204.969H276.982V210.24H282.419V204.969H285.315Z" fill="white"/>
<path d="M301.337 211.927C301.337 213.542 301.691 214.755 302.4 215.573C303.118 216.38 304.035 216.781 305.15 216.781C306.243 216.781 307.139 216.365 307.837 215.531C308.53 214.688 308.879 213.484 308.879 211.927C308.879 210.359 308.53 209.156 307.837 208.323C307.155 207.479 306.243 207.052 305.108 207.052C303.967 207.052 303.051 207.479 302.358 208.323C301.676 209.156 301.337 210.359 301.337 211.927ZM298.441 211.927C298.441 209.542 299.056 207.719 300.296 206.469C301.53 205.219 303.129 204.594 305.087 204.594C307.046 204.594 308.65 205.214 309.9 206.448C311.16 207.688 311.796 209.51 311.796 211.927C311.796 214.276 311.176 216.083 309.941 217.344C308.702 218.609 307.092 219.24 305.108 219.24C303.233 219.24 301.65 218.646 300.358 217.448C299.077 216.255 298.441 214.417 298.441 211.927Z" fill="white"/>
<path d="M327.193 211.927C327.193 213.542 327.547 214.755 328.255 215.573C328.974 216.38 329.891 216.781 331.005 216.781C332.099 216.781 332.995 216.365 333.693 215.531C334.385 214.688 334.734 213.484 334.734 211.927C334.734 210.359 334.385 209.156 333.693 208.323C333.01 207.479 332.099 207.052 330.964 207.052C329.823 207.052 328.906 207.479 328.214 208.323C327.531 209.156 327.193 210.359 327.193 211.927ZM324.297 211.927C324.297 209.542 324.911 207.719 326.151 206.469C327.385 205.219 328.984 204.594 330.943 204.594C332.901 204.594 334.505 205.214 335.755 206.448C337.016 207.688 337.651 209.51 337.651 211.927C337.651 214.276 337.031 216.083 335.797 217.344C334.557 218.609 332.948 219.24 330.964 219.24C329.089 219.24 327.505 218.646 326.214 217.448C324.932 216.255 324.297 214.417 324.297 211.927Z" fill="white"/>
<path d="M353.654 216.344H360.57V218.865H350.758V204.969H353.654V216.344Z" fill="white"/>
<path d="M135.762 127.371C135.762 129.944 136.376 132.329 137.616 134.538C138.85 136.746 140.501 138.538 142.574 139.913C144.658 141.277 147.022 141.954 149.678 141.954C152.329 141.954 154.689 141.277 156.762 139.913C158.845 138.538 160.501 136.746 161.741 134.538C162.975 132.329 163.595 129.944 163.595 127.371C163.595 124.819 162.975 122.434 161.741 120.225C160.501 118.007 158.845 116.215 156.762 114.85C154.689 113.475 152.329 112.788 149.678 112.788C147.022 112.788 144.658 113.475 142.574 114.85C140.501 116.215 138.85 118.007 137.616 120.225C136.376 122.434 135.762 124.819 135.762 127.371ZM135.762 189.684H115.887V98.0794H135.762V105.246C138.329 102.053 141.355 99.8398 144.845 98.6003C148.329 97.3659 151.975 96.7461 155.783 96.7461C161.35 96.7461 166.324 98.1836 170.699 101.059C175.074 103.934 178.517 107.694 181.033 112.329C183.559 116.97 184.824 121.986 184.824 127.371C184.824 132.762 183.559 137.777 181.033 142.413C178.517 147.053 175.074 150.788 170.699 153.621C166.324 156.454 161.35 157.871 155.783 157.871C151.975 157.871 148.199 157.23 144.449 155.954C140.699 154.663 137.803 152.517 135.762 149.517V189.684Z" fill="white"/>
<path d="M223.781 112.788C221.307 112.788 219.078 113.517 217.094 114.975C215.104 116.434 213.536 118.267 212.385 120.475C211.229 122.684 210.656 124.986 210.656 127.371V156.538H190.781V98.0794H210.656V105.246C212.156 103.027 214.182 101.053 216.74 99.3294C219.307 97.6107 222.406 96.7461 226.031 96.7461C226.917 96.7461 227.932 96.8607 229.073 97.0794C230.224 97.3034 231.203 97.6367 232.01 98.0794V116.1H231.74C230.766 114.866 229.573 114.007 228.156 113.517C226.74 113.033 225.281 112.788 223.781 112.788Z" fill="white"/>
<path d="M264.74 142.745C268.281 142.745 271.021 141.995 272.969 140.495C274.911 138.995 276.281 137.078 277.073 134.745C277.865 132.401 278.26 129.99 278.26 127.516C278.26 125.031 277.833 122.641 276.99 120.349C276.156 118.047 274.766 116.141 272.823 114.641C270.875 113.141 268.182 112.391 264.74 112.391C261.292 112.391 258.578 113.141 256.594 114.641C254.604 116.141 253.188 118.047 252.344 120.349C251.51 122.641 251.094 125.031 251.094 127.516C251.094 129.99 251.49 132.401 252.281 134.745C253.073 137.078 254.458 138.995 256.448 140.495C258.448 141.995 261.208 142.745 264.74 142.745ZM264.74 96.8906C270.833 96.8906 276.406 98.1771 281.448 100.745C286.49 103.302 290.51 106.859 293.51 111.411C296.51 115.953 298.01 121.276 298.01 127.37C298.01 133.568 296.531 138.943 293.573 143.495C290.615 148.036 286.615 151.547 281.573 154.016C276.542 156.49 270.932 157.724 264.74 157.724C258.557 157.724 252.927 156.49 247.844 154.016C242.76 151.547 238.74 148.036 235.781 143.495C232.823 138.943 231.344 133.568 231.344 127.37C231.344 121.276 232.844 115.953 235.844 111.411C238.844 106.859 242.885 103.302 247.969 100.745C253.052 98.1771 258.641 96.8906 264.74 96.8906Z" fill="white"/>
<path d="M358.068 115.85H338.589C338.224 113.199 337.052 111.408 335.068 110.475C333.078 109.548 331.115 109.079 329.172 109.079C327.224 109.079 325.411 109.548 323.734 110.475C322.052 111.408 321.214 112.757 321.214 114.517C321.214 115.84 322.115 116.829 323.922 117.496C325.74 118.163 328.078 118.699 330.943 119.1C333.818 119.491 336.865 119.996 340.089 120.621C343.323 121.236 346.38 122.204 349.255 123.538C352.13 124.861 354.469 126.736 356.276 129.163C358.078 131.595 358.984 134.887 358.984 139.038C358.984 143.637 357.766 147.303 355.339 150.038C352.906 152.777 349.526 154.767 345.193 156.017C340.87 157.251 335.885 157.871 330.234 157.871C324.484 157.871 319.286 157.1 314.651 155.559C310.01 154.007 306.276 151.527 303.443 148.121C300.62 144.72 299.031 140.277 298.672 134.788H318.422C318.422 137.704 319.13 139.809 320.547 141.1C321.964 142.382 323.641 143.199 325.589 143.559C327.531 143.908 329.214 144.079 330.63 144.079C332.922 144.079 334.885 143.663 336.526 142.829C338.161 141.986 338.984 140.762 338.984 139.163C338.984 137.137 338.073 135.595 336.255 134.538C334.448 133.47 332.109 132.673 329.234 132.142C326.359 131.616 323.307 131.09 320.089 130.559C316.865 130.033 313.818 129.262 310.943 128.246C308.068 127.22 305.719 125.694 303.901 123.663C302.094 121.637 301.193 118.85 301.193 115.309C301.193 109.298 303.531 104.699 308.214 101.517C312.906 98.3398 320.068 96.7461 329.693 96.7461C337.385 96.7461 343.818 98.2565 348.984 101.267C354.151 104.267 357.177 109.132 358.068 115.85Z" fill="white"/>
<path d="M154.527 71.4115H116.277V7.01562H154.527V13.1823H122.902V36.099H153.59V42.349H122.902V65.2656H154.527V71.4115Z" fill="white"/>
<path d="M192.788 71.4115V45.3698C192.788 42.6615 192.184 40.3281 190.975 38.3698C189.71 36.4688 187.663 35.5156 184.829 35.5156C181.98 35.5156 179.673 36.0573 177.913 37.1406C176.147 38.2135 174.725 39.599 173.642 41.3073C171.626 44.4635 170.621 48.6927 170.621 53.9948V71.4115H163.996V29.7448H170.621V36.9531C172.007 34.6094 173.777 32.6771 175.934 31.1615C178.194 29.651 180.814 28.8906 183.788 28.8906C186.746 28.8906 189.142 29.3021 190.975 30.1198C192.809 31.0104 194.355 32.1823 195.621 33.6406C198.147 36.599 199.413 40.5104 199.413 45.3698V71.4115H192.788Z" fill="white"/>
<path d="M241.165 50.5794C241.165 46.5378 239.775 43.0065 236.999 39.9753C234.15 36.9492 230.645 35.4336 226.478 35.4336C222.447 35.4336 218.978 36.9492 216.061 39.9753C213.228 42.9492 211.811 46.4857 211.811 50.5794C211.811 54.694 213.228 58.2253 216.061 61.1836C218.978 64.2148 222.447 65.7253 226.478 65.7253C230.645 65.7253 234.15 64.2148 236.999 61.1836C239.775 58.1576 241.165 54.6211 241.165 50.5794ZM211.624 77.1003C212.249 79.6836 213.603 81.9805 215.686 83.9961C218.587 86.9648 222.092 88.4544 226.207 88.4544C230.301 88.4544 233.837 86.9648 236.811 83.9961C239.712 81.0898 241.165 77.5898 241.165 73.4961V64.4128C240.842 64.8451 240.499 65.2826 240.124 65.7253C236.15 70.1419 231.29 72.3503 225.54 72.3503C219.733 72.3503 214.874 70.1419 210.957 65.7253C207.108 61.4336 205.186 56.3867 205.186 50.5794C205.186 44.7773 207.108 39.7253 210.957 35.4336C214.874 31.0169 219.733 28.8086 225.54 28.8086C231.092 28.8086 235.957 31.0169 240.124 35.4336C240.499 35.8815 240.842 36.3242 241.165 36.7669V29.7461H247.79V73.4961C247.79 79.4232 245.676 84.5065 241.457 88.7461C237.217 92.9648 232.134 95.0794 226.207 95.0794C220.275 95.0794 215.191 92.9648 210.957 88.7461C207.608 85.3971 205.587 81.5169 204.895 77.1003H211.624Z" fill="white"/>
<path d="M263.887 71.4115H257.262V0.390625H263.887V71.4115Z" fill="white"/>
<path d="M280.087 15.3503C280.905 16.1732 281.316 17.1523 281.316 18.2878C281.316 19.4961 280.905 20.5117 280.087 21.3294C279.254 22.1523 278.275 22.5586 277.15 22.5586C275.941 22.5586 274.926 22.1523 274.108 21.3294C273.285 20.5117 272.879 19.4961 272.879 18.2878C272.879 17.1523 273.285 16.1732 274.108 15.3503C274.926 14.5326 275.941 14.1211 277.15 14.1211C278.275 14.1211 279.254 14.5326 280.087 15.3503ZM280.462 71.4128H273.837V29.7461H280.462V71.4128Z" fill="white"/>
<path d="M296.37 65.4544C298.005 66.5794 300.151 67.1419 302.807 67.1419C308.859 67.1419 311.891 64.8711 311.891 60.3294C311.891 57.6784 309.714 55.6576 305.37 54.2669C303.536 53.6419 301.578 53.0794 299.495 52.5794C297.339 52.069 295.349 51.4023 293.516 50.5794C291.375 49.569 289.771 48.3034 288.703 46.7878C287.62 45.2773 287.078 43.4753 287.078 41.3919C287.078 37.2253 288.526 34.1003 291.432 32.0169C294.333 29.8815 297.807 28.8086 301.849 28.8086C305.891 28.8086 309.234 29.6315 311.891 31.2669C314.542 32.9076 316.339 35.8451 317.286 40.0794H310.182C309.432 37.7357 308.328 36.1836 306.87 35.4336C305.479 34.6732 303.745 34.2878 301.661 34.2878C299.578 34.2878 297.813 34.7357 296.37 35.6211C294.854 36.569 294.099 37.9544 294.099 39.7878C294.099 41.6784 294.729 43.069 295.995 43.9544C297.188 44.7773 298.703 45.4961 300.536 46.1211C302.37 46.694 304.354 47.1992 306.495 47.6419C308.578 48.1576 310.563 48.8503 312.453 49.7253C316.745 51.7565 318.891 55.0065 318.891 59.4753C318.891 63.9648 317.286 67.2826 314.078 69.4336C312.422 70.5065 310.625 71.3242 308.682 71.8919C306.776 72.3919 304.693 72.6419 302.432 72.6419C292.766 72.6419 287.208 68.3503 285.766 59.7669H292.766C293.458 62.4753 294.661 64.3711 296.37 65.4544Z" fill="white"/>
<path d="M330.262 71.4115H323.637V0.390625H330.262V36.9531C331.647 34.6094 333.418 32.6771 335.574 31.1615C337.835 29.651 340.454 28.8906 343.428 28.8906C346.387 28.8906 348.783 29.3021 350.616 30.1198C352.449 31.0104 353.996 32.1823 355.262 33.6406C357.788 36.599 359.053 40.5104 359.053 45.3698V71.4115H352.428V45.3698C352.428 42.6615 351.824 40.3281 350.616 38.3698C349.35 36.4688 347.303 35.5156 344.47 35.5156C341.621 35.5156 339.314 35.9635 337.553 36.849C335.788 37.7969 334.366 39.0885 333.283 40.724C331.267 43.7656 330.262 48.1927 330.262 53.9948V71.4115Z" fill="white"/>
<path d="M90.2826 153.19V124.982L71.5117 153.19H90.2826ZM123.366 171.836H110.408V189.794H90.2826V171.836H41.1367L92.1784 97.9609H110.408V153.19H123.366V171.836Z" fill="white"/>
<mask id="mask0_1625_1051" style="mask-type:luminance" maskUnits="userSpaceOnUse" x="0" y="7" width="81" height="104">
<path d="M0.777344 7.31641H80.1523V110.379H0.777344V7.31641Z" fill="white"/>
</mask>
<g mask="url(#mask0_1625_1051)">
<path d="M80.0755 7.08594V35.7266C80.0755 50.737 77.8255 63.0547 73.3099 72.6641C68.7995 82.2734 61.0911 90.4453 50.1849 97.1589C39.2786 103.878 27.0182 108.357 13.4036 110.596V87.7578C23.1328 83.2526 28.6589 77.237 29.9766 69.7057H13.4036V7.08594H80.0755ZM-9.07031 7.08594V35.7266C-9.07031 50.737 -11.3203 63.0547 -15.8307 72.6641C-20.3464 82.2734 -28.0078 90.4453 -38.8359 97.1589C-49.6589 103.878 -61.9609 108.357 -75.7422 110.596V87.7578C-66.0078 83.2526 -60.487 77.237 -59.1641 69.7057H-75.7422V7.08594H-9.07031Z" fill="white"/>
</g>
<mask id="mask1_1625_1051" style="mask-type:luminance" maskUnits="userSpaceOnUse" x="26" y="35" width="80" height="104">
<path d="M26.125 35.5039H105.5V138.572H26.125V35.5039Z" fill="white"/>
</mask>
<g mask="url(#mask1_1625_1051)">
<path d="M105.423 35.2734V63.9141C105.423 78.9245 103.173 91.2422 98.6628 100.852C94.1523 110.466 86.444 118.633 75.5378 125.352C64.6315 132.065 52.3711 136.544 38.7513 138.784V115.945C48.4857 111.445 54.0117 105.43 55.3294 97.8932H38.7513V35.2734H105.423ZM16.2826 35.2734V63.9141C16.2826 78.9245 14.0326 91.2422 9.51693 100.852C5.00651 110.466 -2.66015 118.633 -13.4883 125.352C-24.306 132.065 -36.6133 136.544 -50.3945 138.784V115.945C-40.6602 111.445 -35.1341 105.43 -33.8164 97.8932H-50.3945V35.2734H16.2826Z" fill="#68BA2D"/>
</g>
</svg>
