<svg width="32" height="32" viewBox="0 0 32 32" fill="none" xmlns="http://www.w3.org/2000/svg">
<g clip-path="url(#clip0_1577_2587)">
<path d="M25.332 14.6654H17.332V6.66536C17.332 6.31174 17.1916 5.9726 16.9415 5.72256C16.6915 5.47251 16.3523 5.33203 15.9987 5.33203C15.6451 5.33203 15.3059 5.47251 15.0559 5.72256C14.8058 5.9726 14.6654 6.31174 14.6654 6.66536V14.6654H6.66536C6.31174 14.6654 5.9726 14.8058 5.72256 15.0559C5.47251 15.3059 5.33203 15.6451 5.33203 15.9987C5.33203 16.3523 5.47251 16.6915 5.72256 16.9415C5.9726 17.1916 6.31174 17.332 6.66536 17.332H14.6654V25.332C14.6654 25.6857 14.8058 26.0248 15.0559 26.2748C15.3059 26.5249 15.6451 26.6654 15.9987 26.6654C16.3523 26.6654 16.6915 26.5249 16.9415 26.2748C17.1916 26.0248 17.332 25.6857 17.332 25.332V17.332H25.332C25.6857 17.332 26.0248 17.1916 26.2748 16.9415C26.5249 16.6915 26.6654 16.3523 26.6654 15.9987C26.6654 15.6451 26.5249 15.3059 26.2748 15.0559C26.0248 14.8058 25.6857 14.6654 25.332 14.6654Z" fill="white"/>
</g>
<defs>
<clipPath id="clip0_1577_2587">
<rect width="32" height="32" fill="white"/>
</clipPath>
</defs>
</svg>
