<svg width="32" height="36" viewBox="0 0 32 36" fill="none" xmlns="http://www.w3.org/2000/svg">
<path fill-rule="evenodd" clip-rule="evenodd" d="M14.08 7.87437C8.52571 11.3844 5.82857 15.0069 5.82857 21.0594C6.19429 20.9469 6.51429 20.9469 6.83429 20.9469C9.73714 20.9469 12.5486 22.8819 12.5486 26.3694C12.5486 29.9919 10.1943 32.2419 6.83429 32.2419C2.49143 32.2419 0 28.8219 0 22.6794C0 14.1294 4 7.98688 11.4743 3.73438L14.08 7.87437ZM30.08 7.87437C24.5257 11.3844 21.8286 15.0069 21.8286 21.0594C22.1943 20.9469 22.5143 20.9469 22.8343 20.9469C25.7371 20.9469 28.5486 22.8819 28.5486 26.3694C28.5486 29.9919 26.1943 32.2419 22.8343 32.2419C18.5143 32.2419 16.0229 28.8219 16.0229 22.6794C16.0229 14.1294 20.0229 7.98688 27.4971 3.73438L30.1029 7.87437H30.08Z" fill="#8BB236"/>
</svg>
