<svg width="32" height="36" viewBox="0 0 32 36" fill="none" xmlns="http://www.w3.org/2000/svg">
<path fill-rule="evenodd" clip-rule="evenodd" d="M17.92 28.1256C23.4743 24.6156 26.1714 20.9931 26.1714 14.9406C25.8057 15.0531 25.4857 15.0531 25.1657 15.0531C22.2629 15.0531 19.4514 13.1181 19.4514 9.63062C19.4514 6.00812 21.8057 3.75813 25.1657 3.75813C29.5086 3.75813 32 7.17813 32 13.3206C32 21.8706 28 28.0131 20.5257 32.2656L17.92 28.1256ZM1.92 28.1256C7.47429 24.6156 10.1714 20.9931 10.1714 14.9406C9.80571 15.0531 9.48571 15.0531 9.16571 15.0531C6.26286 15.0531 3.45143 13.1181 3.45143 9.63062C3.45143 6.00812 5.80571 3.75813 9.16571 3.75813C13.4857 3.75813 15.9771 7.17813 15.9771 13.3206C15.9771 21.8706 11.9771 28.0131 4.50286 32.2656L1.89714 28.1256H1.92Z" fill="#8BB236"/>
</svg>
