<svg width="48" height="48" viewBox="0 0 48 48" fill="none" xmlns="http://www.w3.org/2000/svg">
<path d="M41.9986 23.0003H8.40859L12.6986 18.7103C13.0886 18.3203 13.0886 17.6903 12.6986 17.3003C12.3086 16.9103 11.6786 16.9103 11.2886 17.3003L5.28859 23.3003C4.89859 23.6903 4.89859 24.3203 5.28859 24.7103L11.2886 30.7103C11.4886 30.9003 11.7386 31.0003 11.9986 31.0003C12.2586 31.0003 12.5086 30.9003 12.7086 30.7103C13.0986 30.3203 13.0986 29.6903 12.7086 29.3003L8.40859 25.0003H41.9986C42.5486 25.0003 42.9986 24.5503 42.9986 24.0003C42.9986 23.4503 42.5486 23.0003 41.9986 23.0003Z" fill="#010202"/>
</svg>
