<svg width="40" height="40" viewBox="0 0 40 40" fill="none" xmlns="http://www.w3.org/2000/svg">
<g clip-path="url(#clip0_1577_2575)">
<path d="M34.1698 5.81282C30.4095 2.06655 25.4095 0.00228568 20.0824 0C9.10499 0 0.171594 8.89125 0.167199 19.8199C0.16592 23.3132 1.08273 26.7233 2.82533 29.7291L0 40L10.5573 37.2439C13.466 38.8233 16.741 39.6555 20.0738 39.6568H20.0823H20.0824C31.058 39.6568 39.9928 30.764 39.9974 19.8359C39.9992 14.5394 37.9295 9.55935 34.1698 5.81282ZM20.0824 36.3092H20.0759C17.1052 36.3076 14.1921 35.5136 11.6511 34.0124L11.0464 33.6555L4.7815 35.2909L6.45414 29.2117L6.06015 28.5885C4.40309 25.9653 3.52829 22.9339 3.52954 19.8211C3.53318 10.7376 10.9583 3.34778 20.0887 3.34778C24.5101 3.34961 28.6657 5.06544 31.7911 8.17922C34.9162 11.293 36.6361 15.4323 36.6348 19.8345C36.6309 28.9183 29.2055 36.3092 20.0824 36.3092Z" fill="#E0E0E0"/>
<path d="M0.914062 38.8595L3.61033 29.0578C1.9469 26.1892 1.07214 22.9347 1.07319 19.6015C1.07756 9.17235 9.60295 0.6875 20.078 0.6875C25.1621 0.689786 29.9337 2.65965 33.5214 6.23489C37.1098 9.81009 39.0848 14.5623 39.0828 19.6163C39.0784 30.0458 30.5525 38.5314 20.0788 38.5314C20.078 38.5314 20.0793 38.5314 20.0788 38.5314H20.0703C16.8897 38.5304 13.7646 37.7355 10.9889 36.2294L0.914062 38.8595Z" fill="#4AC959"/>
<path fill-rule="evenodd" clip-rule="evenodd" d="M15.1611 11.4045C14.7927 10.589 14.4048 10.5726 14.0542 10.5584C13.7675 10.5461 13.4393 10.5469 13.1116 10.5469C12.7836 10.5469 12.2507 10.6696 11.8 11.1596C11.349 11.6497 10.0781 12.8344 10.0781 15.2438C10.0781 17.6534 11.841 19.9817 12.0867 20.3087C12.3327 20.6353 15.4896 25.7378 20.4893 27.7008C24.6446 29.3321 25.4901 29.0076 26.392 28.926C27.294 28.8443 29.3022 27.7416 29.7122 26.5979C30.1222 25.4546 30.1222 24.4745 29.9992 24.2696C29.8762 24.0656 29.5482 23.9431 29.0563 23.6982C28.5643 23.4533 26.1461 22.2684 25.6951 22.1051C25.2442 21.9419 24.9162 21.8602 24.5882 22.3506C24.2602 22.8403 23.3181 23.9431 23.0311 24.2696C22.7441 24.5969 22.4572 24.6377 21.9652 24.3928C21.4733 24.1472 19.889 23.6306 18.0096 21.9622C16.5473 20.6643 15.5601 19.0613 15.2731 18.571C14.9861 18.0812 15.2423 17.8159 15.4891 17.5717C15.7099 17.3523 15.981 17.0001 16.227 16.7141C16.4725 16.4281 16.5545 16.224 16.7185 15.8975C16.8824 15.5705 16.8004 15.2845 16.6775 15.0396C16.5545 14.7947 15.5985 12.3729 15.1611 11.4045Z" fill="white"/>
<path d="M34.008 5.75002C30.2909 2.04675 25.3483 0.00622459 20.0824 0.00390625C9.23093 0.00390625 0.400095 8.79308 0.395733 19.5962C0.394453 23.0495 1.30073 26.4204 3.02332 29.3918L0.230469 39.5447L10.6666 36.8202C13.5419 38.3814 16.7793 39.2041 20.0739 39.2054H20.0823H20.0824C30.932 39.2054 39.7641 30.4147 39.7687 19.612C39.7705 14.3764 37.7246 9.45355 34.008 5.75002ZM20.0824 35.8963H20.076C17.1394 35.8948 14.2596 35.1098 11.7478 33.6259L11.15 33.2731L4.95707 34.8897L6.61049 28.8803L6.22103 28.2643C4.58298 25.6712 3.71823 22.6745 3.71951 19.5975C3.72308 10.6183 11.0629 3.31332 20.0885 3.31332C24.4592 3.31511 28.5671 5.01125 31.6566 8.08929C34.7459 11.1673 36.446 15.2591 36.4447 19.6108C36.4409 28.5903 29.1007 35.8963 20.0824 35.8963Z" fill="white"/>
</g>
<defs>
<clipPath id="clip0_1577_2575">
<rect width="40" height="40" fill="white"/>
</clipPath>
</defs>
</svg>
