<svg width="64" height="64" viewBox="0 0 64 64" fill="none" xmlns="http://www.w3.org/2000/svg">
<g clip-path="url(#clip0_1594_926)">
<path d="M21 7H51C51.2652 7 51.5196 6.89464 51.7071 6.70711C51.8946 6.51957 52 6.26522 52 6C52 5.73478 51.8946 5.48043 51.7071 5.29289C51.5196 5.10536 51.2652 5 51 5H21C20.7348 5 20.4804 5.10536 20.2929 5.29289C20.1054 5.48043 20 5.73478 20 6C20 6.26522 20.1054 6.51957 20.2929 6.70711C20.4804 6.89464 20.7348 7 21 7ZM21 11H51C51.2652 11 51.5196 10.8946 51.7071 10.7071C51.8946 10.5196 52 10.2652 52 10C52 9.73478 51.8946 9.48043 51.7071 9.29289C51.5196 9.10536 51.2652 9 51 9H21C20.7348 9 20.4804 9.10536 20.2929 9.29289C20.1054 9.48043 20 9.73478 20 10C20 10.2652 20.1054 10.5196 20.2929 10.7071C20.4804 10.8946 20.7348 11 21 11ZM21 15H51C51.2652 15 51.5196 14.8946 51.7071 14.7071C51.8946 14.5196 52 14.2652 52 14C52 13.7348 51.8946 13.4804 51.7071 13.2929C51.5196 13.1054 51.2652 13 51 13H21C20.7348 13 20.4804 13.1054 20.2929 13.2929C20.1054 13.4804 20 13.7348 20 14C20 14.2652 20.1054 14.5196 20.2929 14.7071C20.4804 14.8946 20.7348 15 21 15ZM21 19H51C51.2652 19 51.5196 18.8946 51.7071 18.7071C51.8946 18.5196 52 18.2652 52 18C52 17.7348 51.8946 17.4804 51.7071 17.2929C51.5196 17.1054 51.2652 17 51 17H21C20.7348 17 20.4804 17.1054 20.2929 17.2929C20.1054 17.4804 20 17.7348 20 18C20 18.2652 20.1054 18.5196 20.2929 18.7071C20.4804 18.8946 20.7348 19 21 19ZM21 23H51C51.2652 23 51.5196 22.8946 51.7071 22.7071C51.8946 22.5196 52 22.2652 52 22C52 21.7348 51.8946 21.4804 51.7071 21.2929C51.5196 21.1054 51.2652 21 51 21H21C20.7348 21 20.4804 21.1054 20.2929 21.2929C20.1054 21.4804 20 21.7348 20 22C20 22.2652 20.1054 22.5196 20.2929 22.7071C20.4804 22.8946 20.7348 23 21 23ZM21 27H38C38.2652 27 38.5196 26.8946 38.7071 26.7071C38.8946 26.5196 39 26.2652 39 26C39 25.7348 38.8946 25.4804 38.7071 25.2929C38.5196 25.1054 38.2652 25 38 25H21C20.7348 25 20.4804 25.1054 20.2929 25.2929C20.1054 25.4804 20 25.7348 20 26C20 26.2652 20.1054 26.5196 20.2929 26.7071C20.4804 26.8946 20.7348 27 21 27ZM44 35C42.8133 35 41.6533 35.3519 40.6666 36.0112C39.6799 36.6705 38.9108 37.6075 38.4567 38.7039C38.0026 39.8003 37.8838 41.0067 38.1153 42.1705C38.3468 43.3344 38.9182 44.4035 39.7574 45.2426C40.5965 46.0818 41.6656 46.6532 42.8295 46.8847C43.9933 47.1162 45.1997 46.9974 46.2961 46.5433C47.3925 46.0892 48.3295 45.3201 48.9888 44.3334C49.6481 43.3467 50 42.1867 50 41C49.9984 39.4092 49.3658 37.884 48.2409 36.7591C47.116 35.6342 45.5908 35.0016 44 35ZM44 45C43.2089 45 42.4355 44.7654 41.7777 44.3259C41.1199 43.8864 40.6072 43.2616 40.3045 42.5307C40.0017 41.7998 39.9225 40.9956 40.0769 40.2196C40.2312 39.4437 40.6122 38.731 41.1716 38.1716C41.731 37.6122 42.4437 37.2312 43.2196 37.0769C43.9956 36.9225 44.7998 37.0017 45.5307 37.3045C46.2616 37.6072 46.8864 38.1199 47.3259 38.7777C47.7654 39.4355 48 40.2089 48 41C48 42.0609 47.5786 43.0783 46.8284 43.8284C46.0783 44.5786 45.0609 45 44 45Z" fill="#010202"/>
<path d="M6 16H11C11.2652 16 11.5196 15.8946 11.7071 15.7071C11.8946 15.5196 12 15.2652 12 15C12 14.7348 11.8946 14.4804 11.7071 14.2929C11.5196 14.1054 11.2652 14 11 14H7V5.5C7 4.57174 7.36875 3.68151 8.02513 3.02513C8.6815 2.36875 9.57174 2 10.5 2C11.4283 2 12.3185 2.36875 12.9749 3.02513C13.6313 3.68151 14 4.57174 14 5.5V19.478C13.894 24.32 13.019 37.5 10.284 40.3C6.4 44.287 6 45.887 6 51C6 51.2652 6.10536 51.5196 6.29289 51.7071C6.48043 51.8946 6.73478 52 7 52H11C11.2652 52 11.5196 51.8946 11.7071 51.7071C11.8946 51.5196 12 51.2652 12 51C12 50.7348 11.8946 50.4804 11.7071 50.2929C11.5196 50.1054 11.2652 50 11 50H8.006C8.056 46.1 8.506 44.983 11.716 41.7C12.8538 40.2535 13.6361 38.5601 14 36.756V56C14 56.2652 14.1054 56.5196 14.2929 56.7071C14.4804 56.8946 14.7348 57 15 57H33C33.2652 57 33.5196 56.8946 33.7071 56.7071C33.8946 56.5196 34 56.2652 34 56C34 55.7348 33.8946 55.4804 33.7071 55.2929C33.5196 55.1054 33.2652 55 33 55H16V5.5C16.0009 4.22194 15.5548 2.98381 14.739 2H52.5C53.4283 2 54.3185 2.36875 54.9749 3.02513C55.6312 3.68151 56 4.57174 56 5.5V39.586L53.485 37.071V33.515C53.485 32.9846 53.2743 32.4759 52.8992 32.1008C52.5241 31.7257 52.0154 31.515 51.485 31.515H47.929L45.414 29C45.0389 28.6251 44.5303 28.4144 44 28.4144C43.4697 28.4144 42.9611 28.6251 42.586 29L40.071 31.515H36.515C35.9846 31.515 35.4759 31.7257 35.1008 32.1008C34.7257 32.4759 34.515 32.9846 34.515 33.515V37.071L32 39.586C31.6251 39.9611 31.4144 40.4697 31.4144 41C31.4144 41.5303 31.6251 42.0389 32 42.414L34.515 44.929V48.485C34.515 49.0154 34.7257 49.5241 35.1008 49.8992C35.4759 50.2743 35.9846 50.485 36.515 50.485H38.276L33.081 62.606C32.9943 62.8084 32.9768 63.0338 33.0312 63.2472C33.0857 63.4606 33.2091 63.65 33.3822 63.7861C33.5553 63.9222 33.7685 63.9973 33.9887 63.9998C34.2089 64.0023 34.4238 63.9321 34.6 63.8L37.754 61.434L39.168 63.555C39.2593 63.6919 39.3831 63.8042 39.5282 63.8818C39.6734 63.9594 39.8354 64 40 64C40.0485 64.0001 40.097 63.9968 40.145 63.99C40.3327 63.9623 40.5085 63.8817 40.6521 63.7578C40.7957 63.6338 40.9011 63.4716 40.956 63.29L42.893 57H45.107L47.044 63.294C47.0989 63.4756 47.2043 63.6378 47.3479 63.7618C47.4915 63.8857 47.6673 63.9663 47.855 63.994C47.9031 63.9994 47.9516 64.0014 48 64C48.1646 64 48.3266 63.9594 48.4718 63.8818C48.6169 63.8042 48.7407 63.6919 48.832 63.555L50.246 61.434L53.4 63.8C53.5762 63.9321 53.7911 64.0023 54.0113 63.9998C54.2315 63.9973 54.4447 63.9222 54.6178 63.7861C54.7909 63.65 54.9143 63.4606 54.9688 63.2472C55.0232 63.0338 55.0057 62.8084 54.919 62.606L49.724 50.485H51.485C52.0154 50.485 52.5241 50.2743 52.8992 49.8992C53.2743 49.5241 53.485 49.0154 53.485 48.485V44.929L56 42.414V55H55C54.7348 55 54.4804 55.1054 54.2929 55.2929C54.1054 55.4804 54 55.7348 54 56C54 56.2652 54.1054 56.5196 54.2929 56.7071C54.4804 56.8946 54.7348 57 55 57H57C57.2652 57 57.5196 56.8946 57.7071 56.7071C57.8946 56.5196 58 56.2652 58 56V5.5C57.9984 4.0418 57.4184 2.64377 56.3873 1.61267C55.3562 0.581563 53.9582 0.00159036 52.5 2.18679e-06H10C9.86632 -0.000279198 9.73398 0.0265976 9.611 0.0790022C8.3247 0.289684 7.15503 0.950346 6.31053 1.9432C5.46603 2.93606 5.00158 4.19657 5 5.5V15C5 15.2652 5.10536 15.5196 5.29289 15.7071C5.48043 15.8946 5.73478 16 6 16ZM39.664 60.693L38.832 59.445C38.7565 59.3319 38.6588 59.2353 38.5448 59.1613C38.4307 59.0872 38.3028 59.0372 38.1687 59.0143C38.0347 58.9913 37.8974 58.996 37.7652 59.0279C37.633 59.0598 37.5088 59.1184 37.4 59.2L36.393 59.956L40.337 50.751L42.161 52.575L39.664 60.693ZM43.508 55L43.945 53.58C43.963 53.58 43.982 53.585 44 53.585C44.018 53.585 44.037 53.58 44.055 53.58L44.492 55H43.508ZM50.6 59.2C50.4912 59.1184 50.367 59.0598 50.2348 59.0279C50.1026 58.996 49.9653 58.9913 49.8313 59.0143C49.6972 59.0372 49.5693 59.0872 49.4552 59.1613C49.3412 59.2353 49.2435 59.3319 49.168 59.445L48.336 60.693L45.836 52.575L47.66 50.751L51.604 59.956L50.6 59.2ZM52.071 43.515C51.8846 43.7002 51.7369 43.9206 51.6363 44.1633C51.5357 44.406 51.4843 44.6663 51.485 44.929V48.485H47.929C47.3989 48.4865 46.8908 48.6971 46.515 49.071L44 51.586L41.192 48.778C41.0045 48.5905 40.7502 48.4851 40.485 48.485H36.515V44.929C36.5157 44.6663 36.4643 44.406 36.3637 44.1633C36.2631 43.9206 36.1154 43.7002 35.929 43.515L33.414 41L35.929 38.485C36.1154 38.2998 36.2631 38.0794 36.3637 37.8367C36.4643 37.594 36.5157 37.3337 36.515 37.071V33.515H40.071C40.6011 33.5135 41.1092 33.3029 41.485 32.929L44 30.414L46.515 32.929C46.8908 33.3029 47.3989 33.5135 47.929 33.515H51.485V37.485C51.4851 37.7502 51.5905 38.0045 51.778 38.192L54.586 41L52.071 43.515Z" fill="#010202"/>
</g>
<defs>
<clipPath id="clip0_1594_926">
<rect width="64" height="64" fill="white"/>
</clipPath>
</defs>
</svg>
