<svg width="64" height="64" viewBox="0 0 64 64" fill="none" xmlns="http://www.w3.org/2000/svg">
<path d="M46.7216 3.19922H17.2816C13.0576 3.19922 9.60156 6.65522 9.60156 10.8792V17.2792C9.60156 21.5032 13.0576 24.9592 17.2816 24.9592H19.2016V30.0792C19.2016 30.5272 19.4576 30.9752 19.9056 31.2312C20.0976 31.2952 20.2896 31.3592 20.4816 31.3592C20.7376 31.3592 20.9936 31.2952 21.2496 31.1032L29.8256 24.9592H46.7216C50.9456 24.9592 54.4016 21.5032 54.4016 17.2792V10.8792C54.4016 6.65522 50.9456 3.19922 46.7216 3.19922ZM51.8416 17.2792C51.8416 20.0952 49.5376 22.3992 46.7216 22.3992H29.4416C29.1856 22.3992 28.9296 22.4632 28.6736 22.6552L21.7616 27.5832V23.6792C21.7616 22.9752 21.1856 22.3992 20.4816 22.3992H17.2816C14.4656 22.3992 12.1616 20.0952 12.1616 17.2792V10.8792C12.1616 8.06322 14.4656 5.75922 17.2816 5.75922H46.7216C49.5376 5.75922 51.8416 8.06322 51.8416 10.8792V17.2792ZM48.0016 17.2792C48.0016 17.9832 47.4256 18.5592 46.7216 18.5592H17.2816C16.5776 18.5592 16.0016 17.9832 16.0016 17.2792C16.0016 16.5752 16.5776 15.9992 17.2816 15.9992H46.7216C47.4256 15.9992 48.0016 16.5752 48.0016 17.2792ZM48.0016 10.8792C48.0016 11.5832 47.4256 12.1592 46.7216 12.1592H17.2816C16.5776 12.1592 16.0016 11.5832 16.0016 10.8792C16.0016 10.1752 16.5776 9.59922 17.2816 9.59922H46.7216C47.4256 9.59922 48.0016 10.1752 48.0016 10.8792ZM23.6816 45.1832C24.8336 44.1592 25.6016 42.6232 25.6016 40.9592C25.6016 37.7592 23.0416 35.1992 19.8416 35.1992C16.6416 35.1992 14.0816 37.7592 14.0816 40.9592C14.0816 42.6232 14.7856 44.1592 16.0016 45.1832C13.6976 46.5272 12.1616 48.9592 12.1616 51.8392V56.9592C12.1616 59.0712 13.8896 60.7992 16.0016 60.7992H23.6816C25.7936 60.7992 27.5216 59.0712 27.5216 56.9592V51.8392C27.5216 49.0232 25.9856 46.5272 23.6816 45.1832ZM16.6416 40.9592C16.6416 39.1672 18.0496 37.7592 19.8416 37.7592C21.6336 37.7592 23.0416 39.1672 23.0416 40.9592C23.0416 42.7512 21.6336 44.1592 19.8416 44.1592C18.0496 44.1592 16.6416 42.7512 16.6416 40.9592ZM24.9616 56.9592C24.9616 57.6632 24.3856 58.2392 23.6816 58.2392H16.0016C15.2976 58.2392 14.7216 57.6632 14.7216 56.9592V51.8392C14.7216 49.0232 17.0256 46.7192 19.8416 46.7192C22.6576 46.7192 24.9616 49.0232 24.9616 51.8392V56.9592ZM48.0016 45.1832C49.1536 44.1592 49.9216 42.6232 49.9216 40.9592C49.9216 37.7592 47.3616 35.1992 44.1616 35.1992C40.9616 35.1992 38.4016 37.7592 38.4016 40.9592C38.4016 42.6232 39.1056 44.1592 40.3216 45.1832C38.0176 46.5272 36.4816 48.9592 36.4816 51.8392V56.9592C36.4816 59.0712 38.2096 60.7992 40.3216 60.7992H48.0016C50.1136 60.7992 51.8416 59.0712 51.8416 56.9592V51.8392C51.8416 49.0232 50.3056 46.5272 48.0016 45.1832ZM40.9616 40.9592C40.9616 39.1672 42.3696 37.7592 44.1616 37.7592C45.9536 37.7592 47.3616 39.1672 47.3616 40.9592C47.3616 42.7512 45.9536 44.1592 44.1616 44.1592C42.3696 44.1592 40.9616 42.7512 40.9616 40.9592ZM49.2816 56.9592C49.2816 57.6632 48.7056 58.2392 48.0016 58.2392H40.3216C39.6176 58.2392 39.0416 57.6632 39.0416 56.9592V51.8392C39.0416 49.0232 41.3456 46.7192 44.1616 46.7192C46.9776 46.7192 49.2816 49.0232 49.2816 51.8392V56.9592Z" fill="#010202"/>
</svg>
