<svg width="64" height="64" viewBox="0 0 64 64" fill="none" xmlns="http://www.w3.org/2000/svg">
<path d="M26 32.8913C26.8954 32.9046 27.7832 32.7256 28.6034 32.3664C29.4237 32.0073 30.1574 31.4763 30.7549 30.8093C30.913 30.6272 31 30.3942 31 30.153V9.62867C31 9.38754 30.9129 9.15452 30.7549 8.97242C30.1572 8.30567 29.4235 7.77488 28.6033 7.41587C27.783 7.05687 26.8953 6.87799 26 6.89132C22.6914 6.89132 20 9.26241 20 12.1765C20.0001 12.3627 20.0131 12.5487 20.0391 12.7331C19.1568 13.1404 18.4052 13.7852 17.8685 14.5952C17.3318 15.4053 17.0311 16.3488 17 17.32C17.0038 18.4111 17.3773 19.4686 18.0596 20.32C17.3771 21.1713 17.0035 22.2289 17 23.32C17.0238 24.2889 17.3183 25.2318 17.8502 26.0419C18.3821 26.852 19.1302 27.4971 20.0098 27.904C20.1865 30.6804 22.8057 32.8913 26 32.8913ZM19 23.32C19.0089 22.8889 19.1113 22.4648 19.2999 22.0771C19.4886 21.6893 19.7591 21.3471 20.0928 21.0739C20.1159 21.0537 20.1255 21.0237 20.1465 21.0017H23V19.0017H19.5807C19.2114 18.5181 19.0078 17.9284 19 17.32C19.0299 16.6972 19.2396 16.0963 19.6038 15.5901C19.9681 15.084 20.4712 14.6942 21.0523 14.468L22.293 15.7087C22.3858 15.8016 22.496 15.8753 22.6173 15.9255C22.7387 15.9758 22.8687 16.0017 23 16.0017H25V14.0017H23.4141L22.0591 12.6467C22.0231 12.4925 22.0033 12.3349 22 12.1765C22 10.3649 23.794 8.89132 26 8.89132C27.1087 8.87213 28.1824 9.27899 29 10.028V29.7537C28.1824 30.5027 27.1087 30.9099 26 30.8914C25.0749 30.961 24.157 30.684 23.4249 30.1141C22.6928 29.5443 22.1989 28.7224 22.0394 27.8085L23.294 27.0017H25V25.0017H23C22.8082 25.0019 22.6204 25.0571 22.459 25.1608L20.9494 26.1319C20.3934 25.8933 19.9157 25.5031 19.571 25.0058C19.2263 24.5086 19.0284 23.9244 19 23.32ZM33.8945 32.8269C34.2942 32.8696 34.6958 32.8911 35.0977 32.8913C35.1484 32.8913 35.1982 32.8913 35.249 32.8903C36.3106 32.8713 37.3646 32.7074 38.3818 32.403C38.5888 32.342 38.7705 32.2156 38.8997 32.0427C39.0289 31.8698 39.0987 31.6598 39.0986 31.444V29.9978C39.0922 29.8956 39.1127 29.7936 39.1579 29.7017C39.2031 29.6099 39.2716 29.5315 39.3564 29.4743C39.8802 29.2144 40.3799 28.9085 40.8496 28.5603C40.9157 28.5177 40.993 28.4958 41.0717 28.4974C41.1503 28.499 41.2266 28.5239 41.291 28.569L42.4697 29.2927C42.6647 29.412 42.8945 29.4611 43.1212 29.4318C43.3478 29.4025 43.5577 29.2965 43.7158 29.1315C45.3089 27.4527 46.4318 25.3841 46.9717 23.1335C47.0215 22.928 47.005 22.7119 46.9245 22.5163C46.8439 22.3207 46.7036 22.1556 46.5234 22.0447L45.041 21.1345C45.1387 20.3086 45.1387 19.474 45.041 18.6481L46.5234 17.738C46.7035 17.6271 46.8439 17.462 46.9244 17.2664C47.005 17.0708 47.0215 16.8547 46.9717 16.6491C46.4339 14.3982 45.313 12.3285 43.7217 10.6481C43.5637 10.4828 43.3539 10.3766 43.1272 10.3471C42.9005 10.3176 42.6705 10.3667 42.4756 10.486L41.291 11.2145C41.2264 11.2599 41.1496 11.2847 41.0707 11.2858C40.9918 11.2868 40.9144 11.264 40.8486 11.2204C40.3789 10.8735 39.8799 10.568 39.3574 10.3073C39.2722 10.2503 39.2035 10.172 39.1581 10.0802C39.1127 9.98831 39.0922 9.88614 39.0986 9.78388V8.33175C39.0986 8.11581 39.0287 7.90567 38.8993 7.73279C38.7699 7.5599 38.588 7.43359 38.3808 7.37275C37.2633 7.03631 36.1005 6.87424 34.9336 6.89228C34.582 6.89619 34.2344 6.91865 33.8906 6.95576C33.6458 6.98276 33.4195 7.09913 33.2552 7.28257C33.0909 7.46601 33 7.70363 33 7.94991V15.5524C33.0001 15.7085 33.0368 15.8624 33.107 16.0018C33.1772 16.1412 33.2791 16.2622 33.4044 16.3552C33.5298 16.4482 33.6751 16.5106 33.8289 16.5374C33.9827 16.5642 34.1406 16.5546 34.29 16.5094C34.5497 16.4311 34.8195 16.3912 35.0908 16.3913C35.9631 16.4499 36.7771 16.8504 37.3559 17.5057C37.9346 18.1611 38.2314 19.0184 38.1816 19.8913C38.2314 20.7642 37.9346 21.6215 37.3559 22.2768C36.7771 22.9322 35.9631 23.3327 35.0908 23.3913C34.8194 23.3912 34.5496 23.351 34.29 23.2721C34.1406 23.227 33.9827 23.2174 33.8289 23.2442C33.6751 23.271 33.5298 23.3334 33.4044 23.4264C33.2791 23.5194 33.1772 23.6404 33.107 23.7798C33.0368 23.9192 33.0001 24.0731 33 24.2291V31.8327C32.9999 32.0796 33.0912 32.3179 33.2564 32.5015C33.4216 32.6851 33.6489 32.801 33.8945 32.8269ZM35 25.3903C35.0303 25.3913 35.0606 25.3913 35.0908 25.3913C36.4939 25.3333 37.817 24.7222 38.7709 23.6916C39.7248 22.661 40.232 21.2947 40.1816 19.8913C40.212 19.1877 40.1011 18.4851 39.8554 17.825C39.6098 17.165 39.2344 16.5608 38.7514 16.0482C38.2684 15.5357 37.6876 15.125 37.0433 14.8406C36.399 14.5562 35.7042 14.4038 35 14.3923V8.89129C35.7052 8.88971 36.4086 8.96238 37.0986 9.10809V9.78387C37.0911 10.2583 37.2149 10.7256 37.4563 11.134C37.6978 11.5425 38.0475 11.8762 38.4668 12.0983C38.8841 12.3064 39.2824 12.5505 39.6572 12.8278C40.0432 13.1104 40.5054 13.2702 40.9836 13.2864C41.4617 13.3026 41.9336 13.1745 42.3379 12.9186L42.8076 12.6296C43.7229 13.7523 44.412 15.0416 44.8369 16.4264L43.4336 17.2878C43.2631 17.3926 43.128 17.5462 43.0456 17.7286C42.9633 17.9111 42.9375 18.114 42.9717 18.3112C43.1618 19.356 43.1618 20.4266 42.9717 21.4714C42.9375 21.6686 42.9633 21.8715 43.0456 22.0539C43.128 22.2364 43.2631 22.3899 43.4336 22.4948L44.8359 23.3561C44.4102 24.7404 43.7193 26.0286 42.8018 27.1491L42.3379 26.8649C41.9339 26.6091 41.4624 26.4807 40.9845 26.4964C40.5066 26.5121 40.0445 26.6711 39.6582 26.9528C39.2835 27.2311 38.8848 27.4755 38.4668 27.6833C38.0475 27.9054 37.6978 28.2391 37.4563 28.6476C37.2149 29.0561 37.0911 29.5233 37.0986 29.9978V30.6697C36.4819 30.8056 35.8531 30.8796 35.2216 30.8904C35.1474 30.8933 35.0742 30.8933 35 30.8904L35 25.3903Z" fill="#010202"/>
<path d="M28 14H26V16H28V14Z" fill="#010202"/>
<path d="M28 25H26V27H28V25Z" fill="#010202"/>
<path d="M26 19H24V21H26V19Z" fill="#010202"/>
<path d="M62 35.0001H59V20.0001C59.0001 19.8687 58.9743 19.7387 58.924 19.6173C58.8738 19.496 58.8001 19.3857 58.7073 19.2928C58.6144 19.1999 58.5041 19.1263 58.3828 19.0761C58.2614 19.0258 58.1313 19 58 19.0001H50.9493C50.6996 14.1429 48.5942 9.56697 45.0679 6.21731C41.5416 2.86765 36.8636 1 32 1C27.1364 1 22.4584 2.86765 18.9321 6.21731C15.4058 9.56697 13.3004 14.1429 13.0507 19.0001H6C5.86866 19 5.73859 19.0258 5.61723 19.0761C5.49587 19.1263 5.3856 19.1999 5.29273 19.2928C5.19985 19.3857 5.1262 19.496 5.07597 19.6173C5.02574 19.7387 4.99993 19.8687 5 20.0001V35.0001H2C1.86866 35 1.73859 35.0258 1.61723 35.0761C1.49587 35.1263 1.3856 35.1999 1.29273 35.2928C1.19985 35.3857 1.1262 35.496 1.07597 35.6173C1.02574 35.7387 0.999925 35.8687 1 36.0001V44.0001C0.999925 44.1314 1.02574 44.2615 1.07597 44.3829C1.1262 44.5042 1.19985 44.6145 1.29273 44.7074C1.3856 44.8002 1.49587 44.8739 1.61723 44.9241C1.73859 44.9743 1.86866 45.0002 2 45.0001H5V53.0001H2C1.86866 53 1.73859 53.0258 1.61723 53.0761C1.49587 53.1263 1.3856 53.1999 1.29273 53.2928C1.19985 53.3857 1.1262 53.496 1.07597 53.6173C1.02574 53.7387 0.999925 53.8687 1 54.0001V62.0001C0.999925 62.1314 1.02574 62.2615 1.07597 62.3829C1.1262 62.5042 1.19985 62.6145 1.29273 62.7074C1.3856 62.8002 1.49587 62.8739 1.61723 62.9241C1.73859 62.9743 1.86866 63.0002 2 63.0001H10C10.1313 63.0002 10.2614 62.9743 10.3828 62.9241C10.5041 62.8739 10.6144 62.8002 10.7073 62.7074C10.8001 62.6145 10.8738 62.5042 10.924 62.3829C10.9743 62.2615 11.0001 62.1314 11 62.0001V59.0001H27V62.0001C26.9999 62.1314 27.0257 62.2615 27.076 62.3829C27.1262 62.5042 27.1999 62.6145 27.2927 62.7074C27.3856 62.8002 27.4959 62.8739 27.6172 62.9241C27.7386 62.9743 27.8687 63.0002 28 63.0001H36C36.1313 63.0002 36.2614 62.9743 36.3828 62.9241C36.5041 62.8739 36.6144 62.8002 36.7073 62.7074C36.8001 62.6145 36.8738 62.5042 36.924 62.3829C36.9743 62.2615 37.0001 62.1314 37 62.0001V59.0001H53V62.0001C52.9999 62.1314 53.0257 62.2615 53.076 62.3829C53.1262 62.5042 53.1999 62.6145 53.2927 62.7074C53.3856 62.8002 53.4959 62.8739 53.6172 62.9241C53.7386 62.9743 53.8687 63.0002 54 63.0001H62C62.1313 63.0002 62.2614 62.9743 62.3828 62.9241C62.5041 62.8739 62.6144 62.8002 62.7073 62.7074C62.8001 62.6145 62.8738 62.5042 62.924 62.3829C62.9743 62.2615 63.0001 62.1314 63 62.0001V54.0001C63.0001 53.8687 62.9743 53.7387 62.924 53.6173C62.8738 53.496 62.8001 53.3857 62.7073 53.2928C62.6144 53.1999 62.5041 53.1263 62.3828 53.0761C62.2614 53.0258 62.1313 53 62 53.0001H59V45.0001H62C62.1313 45.0002 62.2614 44.9743 62.3828 44.9241C62.5041 44.8739 62.6144 44.8002 62.7073 44.7074C62.8001 44.6145 62.8738 44.5042 62.924 44.3829C62.9743 44.2615 63.0001 44.1314 63 44.0001V36.0001C63.0001 35.8687 62.9743 35.7387 62.924 35.6173C62.8738 35.496 62.8001 35.3857 62.7073 35.2928C62.6144 35.1999 62.5041 35.1263 62.3828 35.0761C62.2614 35.0258 62.1313 35 62 35.0001ZM32 3.00009C35.3623 3.00009 38.6491 3.99712 41.4447 5.8651C44.2403 7.73309 46.4193 10.3881 47.706 13.4945C48.9926 16.6008 49.3293 20.0189 48.6734 23.3166C48.0174 26.6143 46.3983 29.6434 44.0208 32.0209C41.6433 34.3984 38.6142 36.0175 35.3165 36.6734C32.0189 37.3294 28.6007 36.9927 25.4944 35.706C22.388 34.4193 19.733 32.2404 17.865 29.4448C15.997 26.6491 15 23.3624 15 20.0001C15.005 15.4929 16.7977 11.1719 19.9847 7.98482C23.1718 4.7978 27.4929 3.00511 32 3.00009ZM3 37.0001H9V43.0001H3V37.0001ZM9 61.0001H3V55.0001H9V61.0001ZM27 54.0001V57.0001H11V54.0001C11.0001 53.8687 10.9743 53.7387 10.924 53.6173C10.8738 53.496 10.8001 53.3857 10.7073 53.2928C10.6144 53.1999 10.5041 53.1263 10.3828 53.0761C10.2614 53.0258 10.1313 53 10 53.0001H7V45.0001H10C10.1313 45.0002 10.2614 44.9743 10.3828 44.9241C10.5041 44.8739 10.6144 44.8002 10.7073 44.7074C10.8001 44.6145 10.8738 44.5042 10.924 44.3829C10.9743 44.2615 11.0001 44.1314 11 44.0001V36.0001C11.0001 35.8687 10.9743 35.7387 10.924 35.6173C10.8738 35.496 10.8001 35.3857 10.7073 35.2928C10.6144 35.1999 10.5041 35.1263 10.3828 35.0761C10.2614 35.0258 10.1313 35 10 35.0001H7V21.0001H13.0507C13.3016 25.6791 15.2733 30.1002 18.5866 33.4135C21.8999 36.7268 26.321 38.6984 31 38.9494V53.0001H28C27.8687 53 27.7386 53.0258 27.6172 53.0761C27.4959 53.1263 27.3856 53.1999 27.2927 53.2928C27.1999 53.3857 27.1262 53.496 27.076 53.6173C27.0257 53.7387 26.9999 53.8687 27 54.0001ZM35 61.0001H29V55.0001H35V61.0001ZM61 61.0001H55V55.0001H61V61.0001ZM57 53.0001H54C53.8687 53 53.7386 53.0258 53.6172 53.0761C53.4959 53.1263 53.3856 53.1999 53.2927 53.2928C53.1999 53.3857 53.1262 53.496 53.076 53.6173C53.0257 53.7387 52.9999 53.8687 53 54.0001V57.0001H37V54.0001C37.0001 53.8687 36.9743 53.7387 36.924 53.6173C36.8738 53.496 36.8001 53.3857 36.7073 53.2928C36.6144 53.1999 36.5041 53.1263 36.3828 53.0761C36.2614 53.0258 36.1313 53 36 53.0001H33V38.9494C37.679 38.6984 42.1001 36.7268 45.4134 33.4135C48.7267 30.1002 50.6984 25.6791 50.9493 21.0001H57V35.0001H54C53.8687 35 53.7386 35.0258 53.6172 35.0761C53.4959 35.1263 53.3856 35.1999 53.2927 35.2928C53.1999 35.3857 53.1262 35.496 53.076 35.6173C53.0257 35.7387 52.9999 35.8687 53 36.0001V44.0001C52.9999 44.1314 53.0257 44.2615 53.076 44.3829C53.1262 44.5042 53.1999 44.6145 53.2927 44.7074C53.3856 44.8002 53.4959 44.8739 53.6172 44.9241C53.7386 44.9743 53.8687 45.0002 54 45.0001H57V53.0001ZM61 43.0001H55V37.0001H61V43.0001Z" fill="#010202"/>
</svg>
