<svg width="64" height="64" viewBox="0 0 64 64" fill="none" xmlns="http://www.w3.org/2000/svg">
<path d="M51.9987 60H18.6654C17.2509 60 15.8943 59.4381 14.8941 58.4379C13.8939 57.4377 13.332 56.0812 13.332 54.6667V52C13.332 51.6464 13.4725 51.3072 13.7226 51.0572C13.9726 50.8071 14.3117 50.6667 14.6654 50.6667C15.019 50.6667 15.3581 50.8071 15.6082 51.0572C15.8582 51.3072 15.9987 51.6464 15.9987 52V54.6667C15.9987 55.3739 16.2797 56.0522 16.7797 56.5523C17.2798 57.0524 17.9581 57.3333 18.6654 57.3333H51.9987C52.7059 57.3333 53.3842 57.0524 53.8843 56.5523C54.3844 56.0522 54.6654 55.3739 54.6654 54.6667V17.3333C54.6654 16.6261 54.3844 15.9478 53.8843 15.4477C53.3842 14.9476 52.7059 14.6667 51.9987 14.6667H47.9987C47.6451 14.6667 47.3059 14.5262 47.0559 14.2761C46.8058 14.0261 46.6654 13.687 46.6654 13.3333C46.6654 12.9797 46.8058 12.6406 47.0559 12.3905C47.3059 12.1405 47.6451 12 47.9987 12H51.9987C53.4132 12 54.7697 12.5619 55.7699 13.5621C56.7701 14.5623 57.332 15.9188 57.332 17.3333V54.6667C57.332 56.0812 56.7701 57.4377 55.7699 58.4379C54.7697 59.4381 53.4132 60 51.9987 60Z" fill="#010202"/>
<path d="M44.0013 53.3333H12.0013C10.5868 53.3333 9.23028 52.7714 8.23008 51.7712C7.22989 50.771 6.66799 49.4145 6.66799 48V18.9907C6.66613 18.2898 6.80329 17.5956 7.07152 16.9482C7.33975 16.3007 7.73373 15.7129 8.23065 15.2187L17.8867 5.56267C18.8884 4.56512 20.2436 4.0035 21.6573 4H44.0013C45.4158 4 46.7724 4.5619 47.7726 5.5621C48.7728 6.56229 49.3347 7.91885 49.3347 9.33333V48C49.3347 49.4145 48.7728 50.771 47.7726 51.7712C46.7724 52.7714 45.4158 53.3333 44.0013 53.3333ZM21.6573 6.66667C20.9505 6.66842 20.2729 6.94923 19.772 7.448L10.116 17.104C9.8676 17.3513 9.67066 17.6453 9.53655 17.9692C9.40244 18.293 9.33382 18.6402 9.33465 18.9907V48C9.33465 48.7072 9.61561 49.3855 10.1157 49.8856C10.6158 50.3857 11.2941 50.6667 12.0013 50.6667H44.0013C44.7086 50.6667 45.3868 50.3857 45.8869 49.8856C46.387 49.3855 46.668 48.7072 46.668 48V9.33333C46.668 8.62609 46.387 7.94781 45.8869 7.44771C45.3868 6.94762 44.7086 6.66667 44.0013 6.66667H21.6573Z" fill="#010202"/>
<path d="M17.3324 18.6683H8.3724C8.01877 18.6683 7.67963 18.5279 7.42959 18.2778C7.17954 18.0278 7.03906 17.6886 7.03906 17.335C7.03906 16.9814 7.17954 16.6422 7.42959 16.3922C7.67963 16.1421 8.01877 16.0017 8.3724 16.0017H17.3324C17.686 16.0017 18.0252 15.8612 18.2752 15.6111C18.5253 15.3611 18.6657 15.022 18.6657 14.6683V5.70833C18.6657 5.35471 18.8062 5.01557 19.0563 4.76552C19.3063 4.51548 19.6454 4.375 19.9991 4.375C20.3527 4.375 20.6918 4.51548 20.9419 4.76552C21.1919 5.01557 21.3324 5.35471 21.3324 5.70833V14.6683C21.3324 15.7292 20.911 16.7466 20.1608 17.4968C19.4107 18.2469 18.3933 18.6683 17.3324 18.6683ZM39.9991 20.0017H29.3324C28.9788 20.0017 28.6396 19.8612 28.3896 19.6111C28.1395 19.3611 27.9991 19.022 27.9991 18.6683C27.9991 18.3147 28.1395 17.9756 28.3896 17.7255C28.6396 17.4755 28.9788 17.335 29.3324 17.335H39.9991C40.3527 17.335 40.6918 17.4755 40.9419 17.7255C41.1919 17.9756 41.3324 18.3147 41.3324 18.6683C41.3324 19.022 41.1919 19.3611 40.9419 19.6111C40.6918 19.8612 40.3527 20.0017 39.9991 20.0017ZM39.9991 14.6683H34.6657C34.3121 14.6683 33.973 14.5279 33.7229 14.2778C33.4729 14.0278 33.3324 13.6886 33.3324 13.335C33.3324 12.9814 33.4729 12.6422 33.7229 12.3922C33.973 12.1421 34.3121 12.0017 34.6657 12.0017H39.9991C40.3527 12.0017 40.6918 12.1421 40.9419 12.3922C41.1919 12.6422 41.3324 12.9814 41.3324 13.335C41.3324 13.6886 41.1919 14.0278 40.9419 14.2778C40.6918 14.5279 40.3527 14.6683 39.9991 14.6683ZM21.3324 34.6683H17.3324C16.6252 34.6683 15.9469 34.3874 15.4468 33.8873C14.9467 33.3872 14.6657 32.7089 14.6657 32.0017V28.0017C14.6657 27.2944 14.9467 26.6161 15.4468 26.116C15.9469 25.6159 16.6252 25.335 17.3324 25.335H21.3324C22.0396 25.335 22.7179 25.6159 23.218 26.116C23.7181 26.6161 23.9991 27.2944 23.9991 28.0017V32.0017C23.9991 32.7089 23.7181 33.3872 23.218 33.8873C22.7179 34.3874 22.0396 34.6683 21.3324 34.6683ZM17.3324 28.0017V32.0017H21.3324V28.0017H17.3324ZM21.3324 46.6683H17.3324C16.6252 46.6683 15.9469 46.3874 15.4468 45.8873C14.9467 45.3872 14.6657 44.7089 14.6657 44.0017V40.0017C14.6657 39.2944 14.9467 38.6161 15.4468 38.116C15.9469 37.6159 16.6252 37.335 17.3324 37.335H21.3324C22.0396 37.335 22.7179 37.6159 23.218 38.116C23.7181 38.6161 23.9991 39.2944 23.9991 40.0017V44.0017C23.9991 44.7089 23.7181 45.3872 23.218 45.8873C22.7179 46.3874 22.0396 46.6683 21.3324 46.6683ZM17.3324 40.0017V44.0017H21.3324V40.0017H17.3324ZM39.9991 45.335H26.6657C26.3121 45.335 25.973 45.1945 25.7229 44.9445C25.4729 44.6944 25.3324 44.3553 25.3324 44.0017C25.3324 43.648 25.4729 43.3089 25.7229 43.0589C25.973 42.8088 26.3121 42.6683 26.6657 42.6683H39.9991C40.3527 42.6683 40.6918 42.8088 40.9419 43.0589C41.1919 43.3089 41.3324 43.648 41.3324 44.0017C41.3324 44.3553 41.1919 44.6944 40.9419 44.9445C40.6918 45.1945 40.3527 45.335 39.9991 45.335ZM39.9991 40.0017H26.6657C26.3121 40.0017 25.973 39.8612 25.7229 39.6111C25.4729 39.3611 25.3324 39.022 25.3324 38.6683C25.3324 38.3147 25.4729 37.9756 25.7229 37.7255C25.973 37.4755 26.3121 37.335 26.6657 37.335H39.9991C40.3527 37.335 40.6918 37.4755 40.9419 37.7255C41.1919 37.9756 41.3324 38.3147 41.3324 38.6683C41.3324 39.022 41.1919 39.3611 40.9419 39.6111C40.6918 39.8612 40.3527 40.0017 39.9991 40.0017ZM39.9991 33.335H26.6657C26.3121 33.335 25.973 33.1945 25.7229 32.9445C25.4729 32.6944 25.3324 32.3553 25.3324 32.0017C25.3324 31.648 25.4729 31.3089 25.7229 31.0589C25.973 30.8088 26.3121 30.6683 26.6657 30.6683H39.9991C40.3527 30.6683 40.6918 30.8088 40.9419 31.0589C41.1919 31.3089 41.3324 31.648 41.3324 32.0017C41.3324 32.3553 41.1919 32.6944 40.9419 32.9445C40.6918 33.1945 40.3527 33.335 39.9991 33.335ZM39.9991 28.0017H26.6657C26.3121 28.0017 25.973 27.8612 25.7229 27.6111C25.4729 27.3611 25.3324 27.022 25.3324 26.6683C25.3324 26.3147 25.4729 25.9756 25.7229 25.7255C25.973 25.4755 26.3121 25.335 26.6657 25.335H39.9991C40.3527 25.335 40.6918 25.4755 40.9419 25.7255C41.1919 25.9756 41.3324 26.3147 41.3324 26.6683C41.3324 27.022 41.1919 27.3611 40.9419 27.6111C40.6918 27.8612 40.3527 28.0017 39.9991 28.0017Z" fill="#010202"/>
</svg>
