<svg width="64" height="64" viewBox="0 0 64 64" fill="none" xmlns="http://www.w3.org/2000/svg">
<path d="M35.8821 46.2832C36.9534 45.47 37.7423 44.341 38.1377 43.0555C38.5332 41.77 38.5151 40.3928 38.086 39.1181C37.657 37.8434 36.8387 36.7355 35.7465 35.9507C34.6542 35.1659 33.3432 34.7437 31.9983 34.7437C30.6533 34.7437 29.3423 35.1659 28.25 35.9507C27.1578 36.7355 26.3395 37.8434 25.9105 39.1181C25.4814 40.3928 25.4634 41.77 25.8588 43.0555C26.2542 44.341 27.0432 45.47 28.1144 46.2832C24.4138 47.5862 19.2844 51.928 21.6582 56.2724C22.0519 56.9386 22.6132 57.49 23.2863 57.8719C23.9593 58.2538 24.7205 58.4529 25.4943 58.4492H38.5022C39.276 58.4529 40.0372 58.2539 40.7102 57.872C41.3832 57.4901 41.9444 56.9386 42.3381 56.2725C44.7129 51.9267 39.5812 47.5879 35.8821 46.2832ZM27.5749 41.1787C27.5855 40.0125 28.0561 38.8976 28.8845 38.0767C29.7129 37.2557 30.832 36.7951 31.9983 36.7952C33.1646 36.7952 34.2837 37.2558 35.1121 38.0767C35.9404 38.8977 36.4111 40.0126 36.4216 41.1788C36.4111 42.345 35.9404 43.4599 35.112 44.2809C34.2836 45.1018 33.1645 45.5624 31.9982 45.5624C30.8319 45.5624 29.7128 45.1018 28.8845 44.2808C28.0561 43.4598 27.5854 42.3449 27.5749 41.1787ZM40.6218 55.2471C40.4041 55.615 40.0939 55.9195 39.7221 56.1304C39.3502 56.3413 38.9297 56.4512 38.5022 56.4492H25.4943C25.0672 56.4442 24.6485 56.3295 24.2785 56.1161C23.9085 55.9027 23.5995 55.5977 23.3812 55.2305C23.163 54.8633 23.0428 54.4462 23.0322 54.0192C23.0215 53.5921 23.1209 53.1695 23.3206 52.7919C24.163 51.2235 25.4148 49.9126 26.9428 48.9988C28.4708 48.0851 30.2179 47.6025 31.9983 47.6025C33.7787 47.6025 35.5258 48.0851 37.0538 48.9988C38.5818 49.9126 39.8336 51.2235 40.676 52.7919C40.8819 53.1703 40.9853 53.596 40.9758 54.0267C40.9663 54.4574 40.8442 54.8781 40.6218 55.2471ZM56.5003 19.0479C56.2945 18.8857 56.0334 18.8108 55.7729 18.8391C55.5125 18.8674 55.2736 18.9967 55.1075 19.1993C54.9414 19.4019 54.8613 19.6615 54.8846 19.9224C54.9078 20.1833 55.0325 20.4248 55.2318 20.5948C56.6588 21.9002 58.8172 23.9661 57.6439 26.0361C57.4253 26.4052 57.1137 26.7105 56.7404 26.9218C56.3671 27.133 55.9449 27.2428 55.5159 27.2402H42.507C42.0803 27.2354 41.6621 27.1208 41.2924 26.9076C40.9228 26.6944 40.6142 26.3898 40.3962 26.0229C40.1783 25.656 40.0584 25.2392 40.0481 24.8126C40.0378 24.386 40.1373 23.9639 40.3372 23.5869C41.1802 22.0185 42.4321 20.7076 43.96 19.7933C45.4879 18.8789 47.2348 18.3953 49.0154 18.3936C57.5142 18.0947 57.5161 5.84596 49.0153 5.54688C47.679 5.5572 46.3791 5.98325 45.296 6.7659C44.2129 7.54855 43.4003 8.64897 42.9711 9.91442C42.5418 11.1799 42.5171 12.5476 42.9004 13.8277C43.2838 15.1078 44.0561 16.2368 45.1103 17.0581C41.3648 18.3941 36.325 22.7402 38.6723 27.0645C39.0659 27.7304 39.627 28.2816 40.2997 28.6634C40.9725 29.0451 41.7335 29.244 42.507 29.2403H55.5158C56.2882 29.2335 57.0458 29.028 57.7158 28.6436C58.3858 28.2592 58.9455 27.7089 59.3413 27.0455C59.737 26.3822 59.9553 25.6282 59.9753 24.856C59.9952 24.0839 59.8161 23.3196 59.4552 22.6367C58.7145 21.2586 57.7105 20.0393 56.5003 19.0479ZM44.5925 11.9697C44.6032 10.8037 45.0739 9.68898 45.9022 8.8682C46.7306 8.04742 47.8495 7.58695 49.0156 7.58696C50.1818 7.58697 51.3007 8.04747 52.129 8.86827C52.9573 9.68907 53.428 10.8038 53.4387 11.9698C53.428 13.1359 52.9573 14.2506 52.129 15.0714C51.3006 15.8921 50.1817 16.3526 49.0155 16.3526C47.8494 16.3526 46.7305 15.8921 45.9022 15.0713C45.0738 14.2505 44.6031 13.1358 44.5925 11.9697ZM25.3239 27.0645C27.6716 22.7396 22.6321 18.397 18.8868 17.0578C19.9406 16.2363 20.7126 15.1073 21.0957 13.8272C21.4788 12.5472 21.4539 11.1796 21.0246 9.91433C20.5953 8.64905 19.7828 7.54876 18.6998 6.76616C17.6168 5.98356 16.3171 5.55744 14.981 5.54694C6.47713 5.85082 6.48364 18.0925 14.9813 18.3936C17.2435 18.3941 19.4369 19.1711 21.195 20.5947C22.2039 21.4212 23.041 22.4374 23.6589 23.5859C23.859 23.963 23.9587 24.3851 23.9485 24.8118C23.9383 25.2385 23.8185 25.6554 23.6006 26.0224C23.3827 26.3895 23.074 26.6943 22.7043 26.9075C22.3346 27.1208 21.9162 27.2354 21.4894 27.2402H8.48068C8.05173 27.2428 7.62957 27.133 7.25624 26.9218C6.8829 26.7105 6.5714 26.4052 6.35275 26.0361C5.1775 23.9652 7.34007 21.9007 8.76475 20.5947C8.96368 20.4245 9.08802 20.1832 9.11108 19.9225C9.13414 19.6618 9.0541 19.4024 8.88811 19.2C8.72213 18.9976 8.48343 18.8683 8.22322 18.8399C7.96301 18.8114 7.70203 18.8861 7.49626 19.0479C6.28598 20.0395 5.28187 21.2588 4.54074 22.6367C4.17995 23.3197 4.00099 24.084 4.02105 24.8561C4.04111 25.6283 4.25954 26.3822 4.6553 27.0455C5.05107 27.7088 5.61086 28.2591 6.28084 28.6435C6.95081 29.0278 7.70842 29.2333 8.48079 29.2402L21.4895 29.2402C22.263 29.244 23.0239 29.0451 23.6967 28.6634C24.3694 28.2816 24.9304 27.7304 25.3239 27.0645ZM10.5578 11.9697C10.5685 10.8037 11.0392 9.68898 11.8676 8.8682C12.6959 8.04742 13.8149 7.58695 14.981 7.58696C16.1471 7.58697 17.266 8.04747 18.0944 8.86827C18.9227 9.68907 19.3934 10.8038 19.404 11.9698C19.3933 13.1359 18.9226 14.2506 18.0943 15.0714C17.2659 15.8921 16.147 16.3526 14.9809 16.3526C13.8148 16.3526 12.6958 15.8921 11.8675 15.0713C11.0392 14.2505 10.5685 13.1358 10.5578 11.9697ZM49.6374 32.2725C49.5103 32.239 49.3778 32.231 49.2476 32.2489C49.1174 32.2668 48.9921 32.3104 48.8788 32.377C48.7655 32.4437 48.6665 32.5321 48.5875 32.6371C48.5085 32.7422 48.4512 32.8619 48.4187 32.9893C47.3864 36.9434 44.9581 40.3903 41.5822 42.6934C41.3693 42.8456 41.2246 43.0753 41.179 43.333C41.1335 43.5908 41.1908 43.8561 41.3387 44.0721C41.4866 44.2881 41.7132 44.4375 41.97 44.4883C42.2268 44.5391 42.4932 44.4872 42.7122 44.3437C46.4864 41.7676 49.2008 37.9128 50.3542 33.4912C50.3871 33.3641 50.3947 33.2318 50.3766 33.1018C50.3584 32.9717 50.3148 32.8466 50.2482 32.7334C50.1817 32.6202 50.0935 32.5213 49.9887 32.4422C49.8839 32.3631 49.7645 32.3054 49.6374 32.2725ZM21.8484 44.5186C22.0599 44.5146 22.2649 44.444 22.4341 44.3169C22.6033 44.1898 22.7281 44.0126 22.7908 43.8104C22.8534 43.6083 22.8508 43.3915 22.7832 43.191C22.7156 42.9904 22.5865 42.8163 22.4143 42.6934C19.0384 40.3903 16.6101 36.9433 15.5779 32.9893C15.5113 32.7326 15.3455 32.5129 15.117 32.3785C14.8884 32.244 14.6158 32.2059 14.3591 32.2725C14.1024 32.3391 13.8827 32.5049 13.7483 32.7334C13.6139 32.962 13.5758 33.2346 13.6423 33.4913C14.7957 37.9128 17.5102 41.7677 21.2844 44.3438C21.4504 44.4576 21.647 44.5186 21.8484 44.5186ZM25.7683 12.8818C29.9049 11.3118 34.4777 11.337 38.5968 12.9523C38.8274 12.9485 39.0495 12.8654 39.226 12.717C39.4024 12.5686 39.5224 12.364 39.5658 12.1376C39.6092 11.9111 39.5733 11.6767 39.4641 11.4736C39.355 11.2705 39.1792 11.1112 38.9664 11.0225C34.4861 9.27051 29.5103 9.27051 25.03 11.0225C24.7885 11.1239 24.5965 11.316 24.4951 11.5575C24.3937 11.799 24.391 12.0706 24.4877 12.3141C24.5843 12.5575 24.7726 12.7533 25.012 12.8595C25.2514 12.9656 25.523 12.9737 25.7683 12.8818Z" fill="#010202"/>
</svg>
