<svg width="64" height="64" viewBox="0 0 64 64" fill="none" xmlns="http://www.w3.org/2000/svg">
<path d="M46.5566 12.0068C46.5566 12.1943 46.5503 12.3818 46.5378 12.5693C46.5316 12.663 46.5253 12.7505 46.5128 12.8443C46.5128 12.863 46.4753 13.1568 46.5003 12.9505C46.4503 13.2943 46.3753 13.6443 46.2816 13.9755C46.2378 14.138 46.1816 14.3005 46.1253 14.463C46.0941 14.5443 46.0691 14.6193 46.0378 14.7005C46.1128 14.5068 46.0128 14.7568 46.0003 14.7818C45.8628 15.0755 45.7066 15.363 45.5316 15.638C45.4441 15.7693 45.3566 15.9005 45.2566 16.0318C45.3753 15.8755 45.1503 16.1568 45.1066 16.2068C44.8816 16.463 44.6378 16.688 44.3816 16.9068C44.1878 17.0755 44.5378 16.8005 44.3316 16.9505C44.2816 16.988 44.2253 17.0255 44.1753 17.063C44.0628 17.1443 43.9441 17.2193 43.8191 17.288C43.6878 17.3693 43.5503 17.438 43.4191 17.5068C43.3503 17.538 43.2816 17.5693 43.2128 17.6068C43.1128 17.6505 43.1191 17.6505 43.2253 17.6005C43.1753 17.6193 43.1316 17.638 43.0816 17.6568C42.8191 17.7568 42.5441 17.8318 42.2691 17.8943C42.1941 17.913 42.1191 17.9255 42.0378 17.938C42.0003 17.9443 41.7441 17.9755 41.9753 17.9505C41.8191 17.9693 41.6566 17.9818 41.5003 17.988C41.1816 18.0005 40.8628 17.9818 40.5441 17.9505C40.7816 17.9755 40.5191 17.9443 40.4816 17.938C40.4191 17.9255 40.3566 17.913 40.2878 17.9005C40.1253 17.8693 39.9628 17.8255 39.8003 17.7755C39.6503 17.7318 39.5066 17.6755 39.3628 17.6255C39.1253 17.5443 39.5316 17.7068 39.3066 17.6005C39.2378 17.5693 39.1691 17.538 39.1003 17.5005C38.8253 17.363 38.5628 17.2068 38.3128 17.0318C38.2503 16.988 38.1878 16.9443 38.1253 16.8943C38.3003 17.0318 38.1003 16.8693 38.0753 16.8505C37.9753 16.7693 37.8816 16.6818 37.7878 16.5943C37.6753 16.488 37.5691 16.3755 37.4628 16.2568C37.4128 16.2005 37.3566 16.138 37.3066 16.0818C37.2753 16.0443 37.2378 16.0005 37.2066 15.9568C37.2753 16.0443 37.2753 16.0443 37.2066 15.9568C37.0378 15.713 36.8753 15.4693 36.7316 15.213C36.6503 15.0693 36.5816 14.9255 36.5128 14.7755C36.5003 14.7505 36.4003 14.5005 36.4753 14.6943C36.4378 14.6005 36.4066 14.513 36.3691 14.4193C36.2566 14.1068 36.1691 13.7943 36.1003 13.4693C36.0628 13.2943 36.0316 13.1193 36.0066 12.9443C36.0316 13.113 36.0066 12.9568 36.0066 12.9255C35.9941 12.8068 35.9816 12.6818 35.9753 12.563C35.9503 12.1943 35.9503 11.8193 35.9753 11.4505C35.9878 11.3005 36.0003 11.1568 36.0191 11.0068C35.9941 11.2193 36.0316 10.938 36.0378 10.913C36.0566 10.8005 36.0816 10.6943 36.1066 10.5818C36.1691 10.2943 36.2628 10.0193 36.3628 9.73803C36.4441 9.49428 36.2816 9.90678 36.3878 9.67553C36.4191 9.60678 36.4503 9.53803 36.4878 9.46928C36.5628 9.31303 36.6503 9.16303 36.7441 9.01303C36.8191 8.88803 36.9066 8.76928 36.9941 8.65053C36.9753 8.67553 36.8691 8.80053 36.9816 8.66928C37.0253 8.61303 37.0753 8.55678 37.1191 8.50678C37.3253 8.27553 37.5503 8.06928 37.7941 7.86928C37.6128 8.01928 37.9003 7.80053 37.9503 7.76303C38.0691 7.68178 38.1941 7.60678 38.3191 7.53803C38.4441 7.46928 38.5753 7.40053 38.7066 7.33803C38.7441 7.31928 38.9691 7.22553 38.7503 7.31303C38.8191 7.28803 38.8878 7.25678 38.9566 7.23178C39.2378 7.12553 39.5253 7.04428 39.8128 6.98178C39.9503 6.95053 40.0878 6.92553 40.2253 6.90053C40.2753 6.88803 40.4566 6.86928 40.2441 6.89428C40.3503 6.88178 40.4503 6.86928 40.5566 6.86303C40.8753 6.83803 41.1941 6.82553 41.5128 6.83803L41.9066 6.85678C41.9878 6.86303 42.0628 6.86928 42.1441 6.87553C42.1941 6.88178 42.2503 6.88803 42.3003 6.89428C42.1816 6.87553 42.1753 6.87553 42.2816 6.89428C42.6066 6.95053 42.9253 7.01928 43.2378 7.11303C43.4003 7.16303 43.5628 7.22553 43.7253 7.28178C43.9566 7.36928 43.5503 7.19428 43.7691 7.30053C43.8566 7.34428 43.9441 7.38178 44.0316 7.42553C44.3066 7.56928 44.5691 7.73803 44.8191 7.91928C44.6253 7.78178 44.8191 7.91928 44.8503 7.95053C44.9253 8.01303 44.9941 8.07553 45.0628 8.13803C45.1691 8.23803 45.2691 8.33803 45.3628 8.44428C45.4128 8.49428 45.4566 8.55053 45.5066 8.60678L45.6003 8.71928C45.5253 8.62553 45.5253 8.61928 45.5878 8.70053C45.6816 8.84428 45.7816 8.98178 45.8691 9.13178C45.9441 9.26303 46.0128 9.39428 46.0816 9.53178L46.1753 9.73803C46.0816 9.52553 46.2066 9.83803 46.2253 9.87553C46.3441 10.2068 46.4316 10.5505 46.4941 10.9005C46.5003 10.9255 46.5378 11.2068 46.5128 10.9943C46.5253 11.113 46.5378 11.2318 46.5503 11.3443C46.5503 11.5755 46.5566 11.788 46.5566 12.0068C46.5566 12.4943 46.9878 12.9693 47.4941 12.9443C48.0003 12.9193 48.4316 12.5318 48.4316 12.0068C48.4253 10.488 48.0566 8.91928 47.1316 7.68803C46.2628 6.53803 45.0691 5.73178 43.6878 5.31928C41.0316 4.52553 37.6878 5.05053 35.7878 7.19428C33.6503 9.60053 33.6191 13.4255 35.1191 16.163C36.6066 18.8818 39.6878 20.3318 42.7253 19.7068C45.7566 19.0818 47.9066 16.3568 48.3253 13.363C48.3878 12.913 48.4253 12.463 48.4316 12.013C48.4316 11.5255 48.0003 11.0505 47.4941 11.0755C46.9816 11.088 46.5566 11.4818 46.5566 12.0068ZM29.1441 27.2818C29.1566 27.2193 29.2441 27.0505 29.1378 27.2443L29.2503 27.0568C29.1441 27.238 29.2628 27.0443 29.2941 27.0068L29.4066 26.8943C29.4691 26.838 29.5316 26.7818 29.5941 26.7318C29.4441 26.863 29.6566 26.688 29.6753 26.6755C29.8128 26.5818 29.9503 26.488 30.0941 26.4068C30.3566 26.2505 30.6316 26.1193 30.9066 25.9943C31.3816 25.7818 31.8628 25.5693 32.3378 25.3568L37.1566 23.2193L38.4316 22.6568C38.0066 22.5443 37.5753 22.4318 37.1503 22.3193C38.1441 23.6193 39.6253 24.4255 41.2753 24.4318C42.8128 24.438 44.3378 23.7255 45.2878 22.513C44.9066 22.563 44.5316 22.613 44.1503 22.6568C46.1316 23.5443 48.1191 24.4255 50.1003 25.313C50.9128 25.6755 51.8066 25.9943 52.5378 26.513C52.6628 26.6005 52.4503 26.438 52.5691 26.5318C52.6253 26.5818 52.6878 26.6318 52.7441 26.6818C52.8378 26.763 52.9253 26.8505 53.0066 26.938C53.0878 27.0255 53.1691 27.1193 53.2503 27.213C53.1628 27.1068 53.2566 27.2193 53.2691 27.238C53.3191 27.313 53.3753 27.388 53.4253 27.463C53.5566 27.6693 53.6753 27.888 53.7691 28.113C53.7066 27.9693 53.7816 28.1568 53.7941 28.1943C53.8128 28.2505 53.8316 28.313 53.8566 28.3693C53.8628 28.388 53.8691 28.4068 53.8753 28.4193C53.9566 28.6443 54.0378 28.863 54.1191 29.088C55.0003 31.4818 55.8878 33.8818 56.7691 36.2755C56.9066 36.6443 57.0378 37.0068 57.1753 37.3755L57.2503 37.5818V37.588C57.2691 37.6505 57.2878 37.7068 57.3066 37.7693C57.2691 37.613 57.3066 37.7943 57.3066 37.838C57.3128 37.988 57.3378 37.713 57.3128 37.8568C57.3003 37.9193 57.2878 37.9755 57.2628 38.0318C57.2253 38.138 57.3691 37.938 57.2191 38.0943C57.1128 38.2068 57.2378 38.0943 57.1628 38.1568C56.6253 38.6443 56.0378 39.088 55.4753 39.5505C53.6316 41.063 51.7941 42.5693 49.9503 44.0818C49.9128 44.113 49.8691 44.1443 49.8316 44.1755C49.4378 44.4943 49.5003 45.1693 49.8316 45.5005C50.2191 45.888 50.7628 45.8255 51.1566 45.5005C52.8316 44.1255 54.5066 42.7568 56.1753 41.3818C56.8878 40.7943 57.6128 40.213 58.3191 39.6193C59.0503 39.013 59.3503 37.9818 59.0441 37.0818C58.9753 36.8755 58.8941 36.6755 58.8191 36.4693C57.9253 34.0505 57.0378 31.6318 56.1441 29.213C55.8128 28.3193 55.5378 27.3005 55.0253 26.5005C54.4441 25.588 53.6066 24.8318 52.6191 24.3818C52.3691 24.2693 52.1191 24.1568 51.8691 24.0505C49.6628 23.063 47.4503 22.0818 45.2441 21.0943C45.1878 21.0693 45.1316 21.0443 45.0816 21.0193C44.7378 20.863 44.2128 20.8193 43.9441 21.163C43.7753 21.3818 43.5816 21.588 43.3753 21.7755C43.3253 21.8193 43.2691 21.863 43.2191 21.9068C43.3691 21.788 43.1816 21.9318 43.1441 21.9505C43.0128 22.038 42.8691 22.1255 42.7253 22.1943C42.6691 22.2255 42.6066 22.2505 42.5441 22.2818C42.4816 22.3068 42.4941 22.3068 42.5878 22.263C42.5503 22.2755 42.5128 22.2943 42.4753 22.3068C42.3378 22.3505 42.2003 22.4005 42.0628 22.438C41.9878 22.4568 41.9066 22.4755 41.8316 22.488C41.7816 22.5005 41.5441 22.5255 41.7691 22.5005C41.6253 22.5193 41.4816 22.5255 41.3378 22.5318C41.1941 22.5318 41.0503 22.5318 40.9066 22.5193C40.8628 22.513 40.6253 22.463 40.8441 22.513C40.7816 22.5005 40.7128 22.488 40.6503 22.4755C40.5066 22.4443 40.3691 22.4068 40.2316 22.363C40.1566 22.338 40.0816 22.313 40.0066 22.2818C39.7691 22.1943 40.1628 22.3693 39.9378 22.2505C39.8066 22.1818 39.6753 22.1193 39.5503 22.038L39.3441 21.9068C39.2816 21.863 39.2003 21.8005 39.3066 21.8818C39.1753 21.7755 39.0566 21.663 38.9378 21.5443C38.8816 21.4818 38.8191 21.4193 38.7628 21.3568C38.7128 21.2943 38.5441 21.0755 38.7441 21.3443C38.4066 20.9068 37.9753 20.7818 37.4628 21.0068C34.9566 22.1193 32.4566 23.2255 29.9503 24.338C28.9003 24.8068 27.5941 25.5443 27.3128 26.7505C27.2003 27.2255 27.4628 27.788 27.9691 27.9068C28.4691 28.0443 29.0191 27.7943 29.1441 27.2818ZM30.5878 57.163H20.7691L21.7066 58.1005C21.8441 56.4943 21.9878 54.8818 22.1253 53.2755C22.1941 52.4505 22.2691 51.6255 22.3378 50.8005C22.5003 48.8943 22.6691 46.9818 22.8316 45.0755C22.9878 43.2818 23.1441 41.4818 23.3003 39.688C23.3191 39.4693 23.3378 39.2443 23.3566 39.0255C23.3628 38.9693 23.3691 38.913 23.3691 38.8568C23.3816 38.7318 23.3816 38.9505 23.3753 38.8505C23.3753 38.7693 23.3691 38.8505 23.3503 38.888C23.3691 38.8505 23.3878 38.813 23.4128 38.788C23.4878 38.6943 23.3816 38.8193 23.3878 38.8255C23.3691 38.8193 23.5253 38.738 23.4128 38.7943C23.2878 38.8568 23.5941 38.6818 23.4753 38.7568C23.3691 38.8255 23.6003 38.7568 23.4691 38.7568H27.8378C27.9253 38.7568 27.9503 38.8068 27.8316 38.7505C27.8628 38.763 27.9378 38.813 27.8691 38.7568C27.7753 38.6755 28.0441 38.8505 27.9316 38.7943C27.8128 38.738 27.9753 38.8193 27.9566 38.8255C27.9628 38.8255 27.8566 38.7005 27.9316 38.788C27.9566 38.8193 27.9753 38.8568 27.9941 38.888C27.9566 38.8068 27.9441 38.813 27.9816 38.888C27.9566 38.838 27.9691 38.763 27.9816 38.8568C27.9878 38.913 27.9941 38.9755 27.9941 39.0318C28.1253 40.5255 28.2503 42.0193 28.3816 43.513C28.5566 45.563 28.7378 47.6068 28.9128 49.6568C28.9878 50.5443 29.0691 51.4318 29.1441 52.3193C29.2941 54.0818 29.4503 55.8443 29.6003 57.6068C29.6128 57.7693 29.6316 57.938 29.6441 58.1005C29.6878 58.588 30.0441 59.063 30.5816 59.038C31.0503 59.0193 31.5628 58.6255 31.5191 58.1005C31.3753 56.4568 31.2378 54.8193 31.0941 53.1755C31.0191 52.313 30.9441 51.4568 30.8691 50.5943C30.7003 48.6068 30.5253 46.6255 30.3566 44.638C30.2066 42.888 30.0566 41.1443 29.9003 39.3943C29.8378 38.7005 29.8003 38.0318 29.2816 37.488C28.5441 36.7193 27.4253 36.8755 26.4628 36.8755H23.6628C23.0503 36.8755 22.4503 37.0505 22.0253 37.5193C21.6691 37.913 21.5253 38.3693 21.4816 38.888C21.3503 40.2818 21.2378 41.6755 21.1191 43.0693C20.9378 45.1693 20.7566 47.2755 20.5753 49.3755C20.4941 50.338 20.4066 51.3005 20.3253 52.2693C20.1691 54.0443 20.0191 55.813 19.8628 57.588C19.8503 57.7568 19.8316 57.9318 19.8191 58.1005C19.7753 58.6068 20.2816 59.038 20.7566 59.038H30.5753C31.0628 59.038 31.5378 58.6068 31.5128 58.1005C31.5003 57.5943 31.1128 57.163 30.5878 57.163Z" fill="#010202"/>
<path d="M44.645 27.8577V49.0015C44.645 49.764 44.6075 50.5452 44.645 51.3077V51.3827C44.6512 51.4702 44.6825 51.2265 44.6512 51.3577C44.62 51.4702 44.72 51.264 44.7262 51.2515C44.6387 51.3827 44.745 51.2577 44.82 51.2202C44.7012 51.2765 44.7387 51.2265 44.8262 51.2265H44.7512C44.4012 51.2015 44.0387 51.2265 43.6887 51.2265H30.07L31.0075 52.164C30.8262 50.0452 30.6387 47.9202 30.4575 45.8015C30.2575 43.4827 30.0887 41.164 29.8575 38.8515C29.745 37.7452 28.9637 36.9265 27.8262 36.889C27.3075 36.8702 26.7825 36.889 26.2637 36.889H24.0325C23.8637 36.889 23.695 36.8827 23.52 36.889C22.8387 36.9077 22.2262 37.214 21.8387 37.7827C21.3762 38.464 21.4262 39.589 21.3575 40.389C21.2325 41.8015 21.1137 43.2077 20.9887 44.6202C20.7762 47.089 20.5637 49.5577 20.3512 52.0327C20.345 52.0765 20.345 52.1202 20.3387 52.164L21.2762 51.2265H6.93247C6.81997 51.2265 6.68871 51.214 6.57622 51.2265H6.51997C6.48872 51.2265 6.63872 51.2765 6.60747 51.2452L6.53247 51.2265C6.58872 51.239 6.63872 51.264 6.67622 51.314C6.55122 51.2327 6.65122 51.2702 6.67622 51.3265C6.77622 51.5015 6.69497 51.214 6.70122 51.4202C6.65746 49.489 6.70122 47.5577 6.70122 45.6265V30.1577C6.70122 29.4327 6.76372 28.6702 6.70122 27.9452V27.8765C6.70122 27.8452 6.58247 28.0765 6.68247 27.964C6.84497 27.7765 6.46372 28.1202 6.66997 27.9765C6.65122 27.9952 6.62621 28.014 6.60747 28.0327C6.50121 28.0702 6.50122 28.0702 6.60122 28.039L6.51372 28.0577H6.56372C6.71372 28.0827 6.88872 28.0577 7.04497 28.0577H44.8075C44.6075 28.0515 44.8887 28.1327 44.7137 28.0327C44.5575 27.9452 44.7325 28.1202 44.6512 27.9702C44.57 27.764 44.6575 28.0702 44.645 27.8577C44.67 28.3452 45.0575 28.8202 45.5825 28.7952C46.07 28.7765 46.5512 28.3827 46.52 27.8577C46.4637 26.864 45.7262 26.1765 44.7387 26.164H11.045C9.54496 26.164 8.04497 26.1202 6.54497 26.164C5.56997 26.1952 4.85747 26.9327 4.83872 27.9015C4.83247 28.139 4.83872 28.3827 4.83872 28.6202V51.0452C4.83872 51.439 4.83872 51.814 5.03247 52.1827C5.33247 52.7577 5.91997 53.0702 6.55122 53.089H21.2825C21.82 53.089 22.1762 52.6577 22.22 52.1515C22.395 50.114 22.57 48.0765 22.7512 46.0327C22.9575 43.664 23.1575 41.3015 23.3637 38.9327C23.37 38.889 23.3637 38.839 23.3762 38.8015C23.3325 39.0327 23.395 38.8077 23.3887 38.8077C23.3762 38.8327 23.3637 38.8577 23.3575 38.8827C23.3762 38.8452 23.395 38.814 23.42 38.7827C23.4262 38.7702 23.4325 38.7577 23.4387 38.7515C23.37 38.839 23.3762 38.839 23.445 38.764C23.4325 38.739 23.2887 38.939 23.445 38.7702C23.5887 38.614 23.47 38.8077 23.4387 38.7702L23.5137 38.7515C23.4012 38.764 23.395 38.764 23.5075 38.7577H23.5387C24.0637 38.764 24.5887 38.7577 25.1137 38.7577H27.8325C28.095 38.7515 27.7137 38.7702 27.87 38.764C27.8825 38.7702 27.895 38.7702 27.9075 38.7765C27.8075 38.7265 27.8075 38.7265 27.9012 38.7765C28.0075 38.889 27.9137 38.739 27.9012 38.7702C27.895 38.7765 27.995 38.8765 27.9075 38.7577C27.9137 38.7702 28.0575 38.939 27.97 38.8577C27.895 38.789 28.0012 39.0202 27.97 38.814C28.0762 39.4265 28.0762 40.0765 28.1325 40.6952C28.2575 42.1077 28.3762 43.5202 28.5012 44.9327C28.7075 47.3015 28.9075 49.664 29.1137 52.0327C29.12 52.0765 29.12 52.1202 29.1262 52.164C29.17 52.6702 29.52 53.1015 30.0637 53.1015H44.4575C45.1512 53.1015 45.82 52.964 46.2325 52.3265C46.645 51.6952 46.5075 50.7265 46.5075 50.0077V34.9515C46.5075 32.6265 46.5387 30.3015 46.5075 27.9765V27.864C46.5075 27.3765 46.0762 26.9015 45.57 26.9265C45.0762 26.939 44.645 27.3327 44.645 27.8577ZM18.2387 59.0265H33.1137C33.6012 59.0265 34.0762 58.5952 34.0512 58.089C34.0262 57.5827 33.6387 57.1515 33.1137 57.1515H18.2387C17.7512 57.1515 17.2762 57.5827 17.3012 58.089C17.3262 58.5952 17.7137 59.0265 18.2387 59.0265Z" fill="#010202"/>
</svg>
