<svg width="64" height="64" viewBox="0 0 64 64" fill="none" xmlns="http://www.w3.org/2000/svg">
<g clip-path="url(#clip0_1577_2341)">
<path d="M32.0014 26.6667H18.6681C18.334 26.6665 18.0121 26.5409 17.7661 26.3147C17.5202 26.0886 17.3682 25.7783 17.3401 25.4453L16.6708 17.4187C16.4681 15.0027 17.2948 12.592 18.9374 10.808C20.5801 9.024 22.9108 8 25.3348 8C27.7588 8 30.0894 9.024 31.7321 10.808C33.3748 12.592 34.2014 15 33.9988 17.4187L33.3294 25.4453C33.3014 25.7783 33.1493 26.0886 32.9034 26.3147C32.6574 26.5409 32.3356 26.6665 32.0014 26.6667ZM19.8948 24H30.7748L31.3428 17.1947C31.4154 16.3631 31.3129 15.5255 31.0419 14.7359C30.7709 13.9464 30.3374 13.2224 29.7694 12.6107C27.4601 10.104 23.2094 10.104 20.9001 12.6107C20.3321 13.2224 19.8986 13.9464 19.6276 14.7359C19.3566 15.5255 19.2541 16.3631 19.3268 17.1947L19.8948 24ZM25.3348 42.6667C20.9241 42.6667 17.3348 39.0773 17.3348 34.6667V30.6667C17.3348 30.313 17.4752 29.9739 17.7253 29.7239C17.9753 29.4738 18.3145 29.3333 18.6681 29.3333H32.0014C32.355 29.3333 32.6942 29.4738 32.9442 29.7239C33.1943 29.9739 33.3348 30.313 33.3348 30.6667V34.6667C33.3348 39.0773 29.7454 42.6667 25.3348 42.6667ZM20.0014 32V34.6667C20.0014 37.608 22.3934 40 25.3348 40C28.2761 40 30.6681 37.608 30.6681 34.6667V32H20.0014Z" fill="#010202"/>
<path d="M25.3333 50.6667C11.3653 50.6667 0 39.3013 0 25.3333C0 11.3653 11.3653 0 25.3333 0C39.3013 0 50.6667 11.3653 50.6667 25.3333C50.6667 39.3013 39.3013 50.6667 25.3333 50.6667ZM25.3333 2.66667C12.8347 2.66667 2.66667 12.8347 2.66667 25.3333C2.66667 37.832 12.8347 48 25.3333 48C37.832 48 48 37.832 48 25.3333C48 12.8347 37.832 2.66667 25.3333 2.66667Z" fill="#010202"/>
<path d="M62.6666 64.0012C62.3129 64.0012 61.9735 63.8613 61.7226 63.6119L42.0266 43.9159C41.7837 43.6644 41.6494 43.3276 41.6524 42.978C41.6554 42.6284 41.7957 42.294 42.0429 42.0468C42.2901 41.7996 42.6245 41.6593 42.9741 41.6563C43.3237 41.6533 43.6605 41.7877 43.912 42.0305L63.608 61.7265C63.7938 61.913 63.9203 62.1503 63.9716 62.4086C64.0228 62.6668 63.9964 62.9344 63.8957 63.1777C63.795 63.421 63.6246 63.629 63.4058 63.7756C63.1871 63.9221 62.9299 64.0006 62.6666 64.0012Z" fill="#010202"/>
</g>
<defs>
<clipPath id="clip0_1577_2341">
<rect width="64" height="64" fill="white"/>
</clipPath>
</defs>
</svg>
