<svg width="64" height="64" viewBox="0 0 64 64" fill="none" xmlns="http://www.w3.org/2000/svg">
<path d="M17.7187 28.096C18.3167 28.525 18.5217 29.34 18.1587 29.981C18.0557 30.162 17.9587 30.344 17.8667 30.528C17.7037 30.854 17.5437 31.209 17.3767 31.614C16.8743 32.8027 16.4768 34.033 16.1887 35.291C16.0237 35.991 15.8727 36.767 15.7277 37.665C15.6707 38.059 15.6097 38.483 15.5497 38.926C15.4797 39.488 15.4147 40.075 15.3507 40.655L15.3367 40.786C14.8139 45.4468 14.5192 50.1304 14.4537 54.82L14.4597 54.897C14.6907 58.966 18.0197 59.917 19.2827 59.941H32.0277L44.7997 59.845C46.3267 59.8 49.3417 58.685 49.5497 54.803V54.683C49.466 50.5503 49.2004 46.4233 48.7537 42.314C48.6667 41.489 48.5717 40.667 48.4677 39.846L48.4597 39.781C48.4197 39.454 48.3797 39.127 48.3317 38.799C48.0407 36.629 47.6377 34.795 47.0967 33.171C46.7795 32.2269 46.3955 31.3066 45.9477 30.417L45.9017 30.325C44.1947 27.015 41.0907 24.975 38.2777 23.416C38.1407 23.34 38.0097 23.264 37.8817 23.19C37.2777 22.841 36.9687 22.674 36.5497 22.667C36.1787 22.661 35.8067 22.668 35.4357 22.674L31.7517 22.709H27.3667C26.7562 22.7048 26.1712 22.4635 25.7353 22.036C25.2995 21.6085 25.0468 21.0283 25.0307 20.418L24.9577 16.693L24.9337 16.619C21.3167 11.259 21.0637 10.712 20.9797 10.532C20.2927 9.061 20.3377 7.474 21.1047 6.183C22.4347 3.946 24.9097 3.893 26.6397 3.913C27.6217 2.25 29.1717 1.265 31.0147 1.137C31.1487 1.128 31.2687 1.125 31.3867 1.125C32.9547 1.125 34.3277 1.782 35.3977 3.034C35.5597 2.985 35.7297 2.939 35.9067 2.899C36.2968 2.80761 36.6961 2.76097 37.0967 2.76C38.6297 2.76 39.9867 3.449 40.8197 4.651C41.6577 5.857 41.8257 7.391 41.2797 8.857C41.0897 9.356 40.8827 9.773 40.6697 10.192C40.5467 10.437 40.4017 10.724 40.3647 10.847C40.0077 12.028 38.3217 16.566 38.2537 16.734L37.8847 17.659H32.3007C31.5897 17.659 30.9387 17.178 30.8047 16.48C30.762 16.2665 30.7671 16.0463 30.8198 15.835C30.8724 15.6238 30.9713 15.4269 31.1092 15.2584C31.2471 15.09 31.4207 14.9542 31.6174 14.861C31.8141 14.7677 32.029 14.7192 32.2467 14.719H35.8687C36.3867 13.316 37.3217 10.758 37.5507 9.998C37.6617 9.63 37.8447 9.267 38.0387 8.882C38.2337 8.499 38.3957 8.174 38.5297 7.82C38.7337 7.271 38.6907 6.736 38.4057 6.325C38.0407 5.798 37.3487 5.582 36.5687 5.761C36.1277 5.862 35.7257 6.021 35.4227 6.148L34.2277 6.651L33.5797 5.529C33.5303 5.44508 33.4782 5.36271 33.4237 5.282C32.6747 4.19 31.9027 4.063 31.3867 4.063C31.3297 4.063 31.2707 4.065 31.2107 4.069C30.3197 4.131 29.6407 4.584 29.1427 5.455C29.0554 5.60658 28.9786 5.76394 28.9127 5.926L28.5887 6.73L27.5967 6.847C27.4646 6.85574 27.3322 6.85974 27.1997 6.859L26.8347 6.855C25.1487 6.834 24.1107 6.879 23.6317 7.684C23.3697 8.126 23.3737 8.712 23.6447 9.292C23.8037 9.606 25.0187 11.49 27.3687 14.972C27.6997 15.463 27.8847 16.042 27.8957 16.634L27.9567 19.768L35.3857 19.734C35.7897 19.727 36.1937 19.72 36.5967 19.727C37.7957 19.746 38.6217 20.223 39.3507 20.644L39.7027 20.845C42.7087 22.512 46.4217 24.939 48.5027 28.957C49.0428 30.013 49.5038 31.1077 49.8817 32.232C50.4857 34.043 50.9297 36.054 51.2427 38.391C51.2917 38.723 51.3347 39.073 51.3777 39.423L51.3847 39.483C51.4907 40.32 51.5877 41.161 51.6757 42.002C52.1357 46.258 52.4097 50.516 52.4877 54.656V54.877L52.4857 54.913C52.2097 60.531 47.7627 62.698 44.8407 62.784H44.7537L32.0357 62.88H19.2547C16.3137 62.826 11.8657 60.71 11.5257 55.105L11.5117 54.823C11.5737 50.082 11.8777 45.257 12.4137 40.461L12.4277 40.331C12.4937 39.737 12.5607 39.136 12.6337 38.543C12.6977 38.075 12.7597 37.642 12.8217 37.218C12.9817 36.228 13.1457 35.384 13.3267 34.617C13.6514 33.1999 14.0994 31.814 14.6657 30.475C14.8527 30.021 15.0417 29.603 15.2357 29.215C15.3467 28.993 15.4637 28.773 15.5867 28.554C15.6892 28.3758 15.828 28.2211 15.9941 28.1C16.1602 27.9789 16.3499 27.894 16.5508 27.8508C16.7518 27.8076 16.9596 27.8071 17.1608 27.8494C17.362 27.8916 17.5521 27.9756 17.7187 28.096Z" fill="#010202"/>
<path d="M38.3266 44.8603C37.1716 43.0693 35.4726 41.9583 33.2726 41.5523V33.4553C34.0796 33.6603 34.7936 34.0843 35.4406 34.7403C36.0656 35.3753 36.9416 35.4313 37.5316 34.8923C37.8276 34.6213 37.9916 34.2843 38.0066 33.9183C38.0176 33.6353 37.9406 33.2003 37.5106 32.7393C36.5246 31.6813 35.2886 30.9653 33.8376 30.6103C33.6416 30.5632 33.4446 30.5209 33.2466 30.4833V30.3123C33.2476 29.8493 33.2476 29.4013 33.2456 28.9533C33.2386 28.0023 32.6626 27.3633 31.8086 27.3633C30.9636 27.3643 30.3666 28.0173 30.3576 28.9523C30.3526 29.4363 30.3536 29.9193 30.3556 30.3993V30.5673C26.6636 31.7253 24.6306 34.1043 24.6176 37.3033C24.6013 38.7845 25.0827 40.2282 25.9846 41.4033C27.0486 42.8113 28.5086 43.7383 30.3306 44.1633V52.2313C28.6856 51.6483 27.6196 50.2313 27.5066 48.4273C27.4546 47.6003 26.8356 46.9763 26.0366 46.9763H26.0356C25.2406 46.9923 24.6336 47.6403 24.6226 48.4843C24.6186 48.7953 24.6386 49.0693 24.6826 49.3223C25.2096 52.3523 27.3816 54.6083 30.3596 55.2243C30.3456 55.6563 30.3496 56.0893 30.3546 56.5223L30.3576 56.8003C30.3656 57.7823 30.9346 58.4173 31.8076 58.4173H31.8296C32.5106 58.4093 33.2396 57.9873 33.2466 56.8223C33.2496 56.3483 33.2486 55.8743 33.2476 55.4033V55.3203C37.4696 54.4913 39.1876 51.3593 39.3666 48.8483C39.4676 47.4273 39.1176 46.0853 38.3266 44.8603ZM27.5076 37.3533C27.5106 35.6863 28.7036 34.1473 30.3296 33.5843V41.1453C28.6976 40.5793 27.5046 39.0313 27.5076 37.3533ZM33.2726 44.4963C34.8386 44.8033 36.3556 46.5003 36.4876 48.2273C36.6296 50.0843 35.2576 51.7753 33.2726 52.3233V44.4963Z" fill="#010202"/>
<path d="M19.8116 26.7483C20.8035 26.7483 21.6076 25.9442 21.6076 24.9523C21.6076 23.9603 20.8035 23.1562 19.8116 23.1562C18.8197 23.1562 18.0156 23.9603 18.0156 24.9523C18.0156 25.9442 18.8197 26.7483 19.8116 26.7483Z" fill="#010202"/>
</svg>
